<mxfile host="app.diagrams.net" agent="Mozilla/5.0 (Windows NT 10.0; Win64; x64) AppleWebKit/537.36 (KHTML, like Gecko) Chrome/136.0.0.0 Safari/537.36" version="27.0.4">
  <diagram name="Halaman-1" id="le_Rxm53JOoHiNuLcZg3">
    <mxGraphModel dx="4074" dy="3292" grid="1" gridSize="10" guides="1" tooltips="1" connect="1" arrows="1" fold="1" page="1" pageScale="1" pageWidth="827" pageHeight="1169" math="0" shadow="0">
      <root>
        <mxCell id="0" />
        <mxCell id="1" parent="0" />
        <mxCell id="534ssPzytABBx_KBt_k8-1" value="Raw Dataset" style="rounded=0;whiteSpace=wrap;html=1;" vertex="1" parent="1">
          <mxGeometry x="344" y="80" width="116" height="50" as="geometry" />
        </mxCell>
        <mxCell id="534ssPzytABBx_KBt_k8-5" style="edgeStyle=orthogonalEdgeStyle;rounded=0;orthogonalLoop=1;jettySize=auto;html=1;" edge="1" parent="1" source="534ssPzytABBx_KBt_k8-2" target="534ssPzytABBx_KBt_k8-3">
          <mxGeometry relative="1" as="geometry" />
        </mxCell>
        <mxCell id="534ssPzytABBx_KBt_k8-6" style="edgeStyle=orthogonalEdgeStyle;rounded=0;orthogonalLoop=1;jettySize=auto;html=1;" edge="1" parent="1" source="534ssPzytABBx_KBt_k8-2" target="534ssPzytABBx_KBt_k8-4">
          <mxGeometry relative="1" as="geometry" />
        </mxCell>
        <mxCell id="534ssPzytABBx_KBt_k8-2" value="Split Dataset" style="rounded=0;whiteSpace=wrap;html=1;" vertex="1" parent="1">
          <mxGeometry x="344" y="180" width="116" height="50" as="geometry" />
        </mxCell>
        <mxCell id="534ssPzytABBx_KBt_k8-9" style="edgeStyle=orthogonalEdgeStyle;rounded=0;orthogonalLoop=1;jettySize=auto;html=1;" edge="1" parent="1" source="534ssPzytABBx_KBt_k8-3" target="534ssPzytABBx_KBt_k8-7">
          <mxGeometry relative="1" as="geometry" />
        </mxCell>
        <mxCell id="534ssPzytABBx_KBt_k8-10" style="edgeStyle=orthogonalEdgeStyle;rounded=0;orthogonalLoop=1;jettySize=auto;html=1;entryX=0.5;entryY=0;entryDx=0;entryDy=0;" edge="1" parent="1" source="534ssPzytABBx_KBt_k8-3" target="534ssPzytABBx_KBt_k8-8">
          <mxGeometry relative="1" as="geometry" />
        </mxCell>
        <mxCell id="534ssPzytABBx_KBt_k8-3" value="Training Data" style="rounded=0;whiteSpace=wrap;html=1;" vertex="1" parent="1">
          <mxGeometry x="180" y="270" width="116" height="50" as="geometry" />
        </mxCell>
        <mxCell id="534ssPzytABBx_KBt_k8-4" value="Test Data" style="rounded=0;whiteSpace=wrap;html=1;" vertex="1" parent="1">
          <mxGeometry x="510" y="260" width="116" height="50" as="geometry" />
        </mxCell>
        <mxCell id="534ssPzytABBx_KBt_k8-16" style="edgeStyle=orthogonalEdgeStyle;rounded=0;orthogonalLoop=1;jettySize=auto;html=1;entryX=0.5;entryY=0;entryDx=0;entryDy=0;" edge="1" parent="1" source="534ssPzytABBx_KBt_k8-7" target="534ssPzytABBx_KBt_k8-13">
          <mxGeometry relative="1" as="geometry" />
        </mxCell>
        <mxCell id="534ssPzytABBx_KBt_k8-7" value="Training Data" style="rounded=0;whiteSpace=wrap;html=1;" vertex="1" parent="1">
          <mxGeometry x="100" y="380" width="116" height="50" as="geometry" />
        </mxCell>
        <mxCell id="534ssPzytABBx_KBt_k8-17" style="edgeStyle=orthogonalEdgeStyle;rounded=0;orthogonalLoop=1;jettySize=auto;html=1;entryX=0.5;entryY=0;entryDx=0;entryDy=0;" edge="1" parent="1" source="534ssPzytABBx_KBt_k8-8" target="534ssPzytABBx_KBt_k8-14">
          <mxGeometry relative="1" as="geometry" />
        </mxCell>
        <mxCell id="534ssPzytABBx_KBt_k8-8" value="Validation Data" style="rounded=0;whiteSpace=wrap;html=1;" vertex="1" parent="1">
          <mxGeometry x="260" y="380" width="116" height="50" as="geometry" />
        </mxCell>
        <mxCell id="534ssPzytABBx_KBt_k8-13" value="" style="rounded=0;whiteSpace=wrap;html=1;" vertex="1" parent="1">
          <mxGeometry x="98" y="500" width="120" height="60" as="geometry" />
        </mxCell>
        <mxCell id="534ssPzytABBx_KBt_k8-14" value="" style="rounded=0;whiteSpace=wrap;html=1;" vertex="1" parent="1">
          <mxGeometry x="258" y="500" width="120" height="60" as="geometry" />
        </mxCell>
        <mxCell id="534ssPzytABBx_KBt_k8-18" value="" style="shape=image;verticalLabelPosition=bottom;labelBackgroundColor=default;verticalAlign=top;aspect=fixed;imageAspect=0;image=data:image/png,iVBORw0KGgoAAAANSUhEUgAAA3gAAALeCAYAAAD4XLMJAAAAAXNSR0IArs4c6QAAAARnQU1BAACxjwv8YQUAAAAJcEhZcwAADsMAAA7DAcdvqGQAAPefSURBVHhe7P1/XJR1vj/+PyhLGyntJ2atjSIyQspEx9W1ds06BeEphHwviMflTHlat74bWu4ax4ql8pDnaEr7ztzetSx5xOF8WJA6Etjph/veXDu9wxkNHFbRiS2TfqKOE5LK94/rx1zXa37DAMPwuN9uc1Ner2uuua7X/Lqe83z9iOvt7e0FERERERERDXsXiAVEREREREQ0PDHAIyIiIiIiihEM8IiIiIiIiGIEAzwiIiIiIqIYwQCPiIiIiIgoRjDAIyIiIiIiihEM8IiIiIiIiGIEAzwiIiIiIqIYwQCPiIiIiIgoRjDAIyIiIiIiihEM8IiIiIiIiGIEAzwiIiIiIqIYwQCPiIiIiIgoRjDAIyIiIiIiihEM8IiIiIiIiGIEAzwiIiIiIqIYEdfb29t79uxZsRwAEBcXh97eXrE4KN7PN97PN96PiIYL8f0s/u2PuJ34tz/iduLf/ojbiX/7I24n/u2PuJ34tyguLk4sIiKiCInr7e3t7enpEcuJiIiIiIhomGEXTSIiIiIiohjBAI+IiIiIiChGMMAjIiIiIiKKEQzwiIiIiIiIYgQDPCIiIiIiohjBAI+IiIiIiChGMMAjIiIiIiKKEQzwiIiIiIiIYgQDPCIiIiIiohjBAI+IiIiIiChGMMAjIiIiIiKKEQzwiIiIiIiIYgQDPKIB1F2dh9GjR+tu4x55T9zMp8b7tfdLw6Z2cYso0b4JacI5+rwlTMKkmZlYXWlD11lxJ0SKRhRqXzfpm+AUN4kBw+b97YP+2P3cxiZg0pTZyC7dAYdL3EPkdbfvwOrbV6NRrBgk3W2N2PRQJtImjdO1w7hJach8aBMa27rFu0SU8/k03eMW7tTWhvieOtuFvZsLUbjZZ62q6/0tKLx/i/c+xO+C+4fq2SAiBnhEA6YbO/64QyxE9+8q0DgSA5yuTnS2vYtND85GwswVeK9L3ICIYsbZLnR+ZkPjv+Yh7cpJyKvuFLeIjK/2YtNPJ2FcSh42vX9crB14Z7vQ+Ggyxs3MxupX34WjUx/IdXc68O6rq5E9cxySH22M0h+3uuH843LMvjIB81ZaYfMTi3a378DyH45Dwu1FsPrbiIiiAgM8ooHi2oHt9WIhAFhR8ccR/uXY/hIy8iowQJd8RBRVOrHjZzNRuDPSv+o4semueVhdP3SfJLbS2ch+0SuX5ZPzxWwk/3qvWDz0dv4cyQUVfgM7SSN+npKHCnvAjYgoSjDAIxogndV/8NtdaEf1Doz4r8n3VqDsfbGQKBOVZ87gjHJrXgGjuAkNQ12w5uaj4jOxfBj7bAuK/i204E7R9eLPh6A77iC9pxJXwK59nN9nilsQ0SBhgEc0IDrR8J/vev4ckw9LtqZ650v4Qyxd6Ggtqfd8wSu3rzthr7IIFxXdePd9h66EiIYbE9a1Cu/3E53oaK7HuvvEMOJdrFgX2hjk4aD7z29Cl49LtKC6uRMnTsvtcPoEOvaUY2GCdiMHKurDCwqJiMLFAI9oIHxWhz9ormPGFFrw3H0LNRvsxfZ+dSsKYdD8zkLdoPu05/Vb6AflF6KxSxrLopQlzC2ENVK/NMePh+m+LfjTxjm6YodDc0zCAP3CnV3Y+3weJo2VyxJmo7BaOMuvbKj4VSbSEjz3GzdpNgqfb4TTT4rU67zRDecfVyNzZoKnPGE2Cjfv9TteRjfJRPomOD6TxqZIZeOQnPEc9goTS3R3yseqnYQhYRJm378Jje1+DlZLOVft/ccmYNLcbJT80YFuP8cK9K2dAGl80xYfE0eMTpiEtIzl2NTk9J+JPtuFvZuXI3PmJIzT3ndsAibNzMRyv48d+LXt/fzJE2xkpCFBea2MS0bmr3b42b9MnlBitubcEuYWYsv7XVLXv3T/xxCqrve3oHCu5vyDvK68+HjeRo8eJ7Wf3/3o2y/teWeQcx0AY8YjITUTK6raYC8z66r8jkEO81yl10EyVrdoS63IVu4rTvDR7UTj8/o2GD16NBLkiWACvlb8OP6Z/lWR/+9bsDB1PMaMkgtGjUHCzctRXfe47sctx8fCD1ten30+XtNjEzD7/i3Y+5X+rqHx956Sy3Otuq0dxcnyttLkP9LnXTZ0W7WsRrL2NQbv8xCfA/Fz09nX90jA13Nk3rtEwx0DPKIB0Fm/XfPL7hhY7rsN4++zIF+zzd5NmxE9+asuvHS/fixLV8vlmHCDbqNB1fVqIeYV70Cn8kXf5cDlEzyXSV27VyD5utlY/sK7cGiuU7s7bbAWZyN5WjYq2jzlvnVh+4PTkFywCe+2aXbSZYN15Twk/KQEe4NdA599F6vna8emdMP53XhMjlc26MLe0nkYN0k+Vu0kDF2dsG1bjeyUcUj71Xvw91Bd9csxSTlX7f3PdqHzo0Y8V5CGcbf7Pta+tlPXzuWYdN08FPmYOAJdnXC8V4HV9ybjhqwKOMSLsa5GLJ+SgHkrK/BuW6c+CDzbhc62d1FRnI3kGzJ9PnboumF7fp40wcZ7Ds9FYbcT776Qh+QbCtHoo03Q7cCm2+UJJTTn1vWRFUW3J2DeCzb/gWtIuvDeo8nSZBQfac5f87p6N9iFetsmzLvB+3kDuqX2WzkPCTNXe/2Q4OVzq/xc+D7X2c8P7KeQ6ZF1+MUYbckONH6g/TuC5+pPVyOWT0tGdrG+DQCgS54IJvmGTFSE+YOWMVEfvFp/tRw7Wrq8Xzs3l6ItjK6LXX9cjmnia/psF2zbijDvutko+cDXi3qYOfs5rA9OCvAe2eT9uYLBeO8SxQYGeEQR14k6q6bjzhgLFt4CYFQmFi/RbPaJFdt1vz4PpUY06qbVBkxrluM25ZfofurucsJWuRw/WamfYMBsNun+1mrcKfwCn1qM5fPk/7dtQsZdLwX+ZbazEct/shyNAS8KG2GtDJBJ/eg5zLvf6jfwAgC0NaLxE23BGOQ/9k9QemU5ns/AvH8NPrGC44UMJN/f6P1Y769A8k9DmJDmg+eQ8cgO/f372k4uK36eG8JjAuh6ezlW6NqwG9YHs1ER0p3fxfJHQnsc33agpDhA23ZZUVQuBjBd2PHgbKwWgwyNvb/KQ0k/3pudr+YjI9DEGx89h01NYqHGWRtK7lmNvb4ucLXaN6Fwg3h+eo4XSgI+F7biElgDvkf6adRtyMzTFnTjLx9p2iaC5+pbF6z3h/B67HoXy4ut4QUHd9wNbb8MtFcgLz0B48ZNwuzcEmxpssHZFdYeAQCN2wK9J2x47ieFsHp9UAwzbZtQEvCzdzVKvCYjG/j3LlGsYIBHFGnt2/GS5gtoTOFCNVDKLPwFPD9mO7Hp1QAXp4NuPBa+3IYT8q/M9l/7D74C2pbt6R4j38YlJGP2gxVCoGFE5h3iGB298dlb0HZCmRjgcUhH1ImKR1bDpm6VgIUv26VxL6dPwP7yQoxXqroqUBTCRWHCfVtg//oMzpw5gY5dj0P3u/zOn+M3u7UFvpjx+Dud8i/0J1CZLT/L7ZuQV+w5UsAIS5UdnSfk8Tm71mG+erBA17Y8FO3UXtQ4UGJ5SRO0jcf8siZ0nPB9rN3Vq7FRvbjpezt179wOzwIfJqzY1aEfV7TrccwZb8T8vMdRvssO6xLNICNh9ljTo03o+NqTvThxpAmPzx4P4235ePy3TbBXL1aD4b4y/1puk9Od2P1rfVbFWd+of929/xv8vFrbxmY8vqtDet2f6EBT2XxPu/TF2fdQ9qhm/C0AY2G15vWlf8596f5jGZ5TfzTQvC9Pn8AHzwjnt+cvAYIB2fiF2LL/hNT+rVuwUPf4O/Bm0Nd3/5hM+s+Sz7/0vKL7eq7GR+04c6YN61K1W+SjXsyStWxEiebHK/Ovd6PztPxcVOXrn+umvZr3Swji8/G7WmEfANDdCdvO51B072wkJ4yTuh0+3xjeeoAJmuesowmP36ytbMTPn4rEWEZ58pVabd8SwFTWJr9f7ViRCGT+/gzOnKnX9UBB6jo1K2l/NPDnuH/jPZ9JJ9qwJVvfkjuahHMc6PcuUQxhgEcUYc76Cl3Xy4UZt3n+uGUhLJruSt2vWvFesF+uB8vsUrxQaNQEoANrfGE5inUXZ6I5KN1ogVE8oPbt2KT53jeV/QnVhSZp3MuoMTAVVqP+UU/I4Hx+i34iBNFtW/BhlQWmeAAYg4R5pWj6z3xNO3Sjoj7gHjDm5+tQeov3pcV75SWa18IY5P/nB9hynwnjx8jjc+atQOOfSuXAFVL2a90fPBfs72/BJk120PjrJjQ+ehsSxkA91uqyORifPB+Wsko0NX/gadN+tJN+bJERptQE/biieaXY3dmGxtdKsXyefD6KzuO6gMo41YwEtbsqMOa621D6p060NVWi9MHbYNLduQ8WVKLpGblNRo3HnBKhS2DLPt37ce8fKzQB8xjk/2cTSuclSM/3mATc9mgjmn7d1wtWAE0VeElzDTomrxofvLxQ8/pagcYG/Zgs0XtNmvUzM57D75T35agxMD9arL/Q/vIEvtP+7cWIxxuqYUmWGmVMogUvlOjHwtraAmQbB0DnZ5716iJ7rt6cTTs8r8eEFSgvmYPxoyA9F/cVY2WyZuPub70z6EGMX1CJ/a8tDPwjRZfUHTr09QDnY8tfNM9Zwm0obahGvva7o3JH4M+1YcD46ybPZ9IYIywbS6F7Zdocus+SAX/vEsUQBnhEEeVAxRbt5WQ+Fmdo/hx1G/If0H5LV2BHlCwVYFqYGfgiJYIS7qvE/s2ZgYPJ1BxkXicWAp3vNWou2E1YvMD7C33OrfM9f3TX4s2PtLV6mfd7Z5DGZ/9CH4i/tzdgN0ddEK/aix2Vmiv9G1agWPiFGgCQvALF2hlWP9iBBvka0PnRXzRdxhKQv1Cf0QAA46O70bm/EVsezcdtqePVNu1POxmTtY/TiOXXjca4lEwUlm5B40dOBOx1doNJl1VsfChBmvTkZ33vshZIZp4mEwkAo4wwJmoLtJzY+542+rLAssD7OTH/0y80QXd4nG3aHNAYWH4uHB8A3GzBLwL8uCFlTOTb6xbh/AK+a7wl5CNHl/0BEm7wfi0MlYieqw9Spk/ef8c6zNF1Ox/j+eGiHxLyqtFxog31Zfkwez3ZWiGuB7jgn7BY/OwbvxC/0H13vIu9YY4ZjC4+Ps+uMwb44WPg37tEsYQBHlEktWyHVTsea8liZAoXEHOWrNAEFN146cUwx30MEHOy/6/W/huDhOsSYF7wOLb8Tyc6qvKREOzCymzy+WX/ubNV85cDJTP13UFHjxZnheuE81PNnzom/Mjs6yJygj5IELJAeibc5OuK4pO9+Iv2ib31R34uPMZgzhxtzbv4QI4RHDZtsHA5Lve+nvGrX+2UsRKPCxPsdLe/C+u/FiF7bjISxkkB3+pKm/dsd6MysVL8Fb3biXerNV3WxiUj81cVsAWbaCQE4+N9PX/+OLBPOz4n0Qijr9dhoj5IDYd+hkQjjBM0f6qMMIXxAN1dnXB+1IgtpYXITMnTz2YYzFWXeweYQ81Xm8v6da6hcHWhs+U9WJ9fjey5s4VZOPthjBGZj1big84zONHZhg9eL8fjC8xytl2rC9aC3wTsuWGaY/b549eE63VzcWKf/w+lYSC8z7PBeO8SxRIGeEQR5Kix6jM9PsajjZ77nH7MTH0ddoQzNiPa+VoH78wJdBzpwAe1pbCkhfWt7uX4Z6F0cdKztfvPv0XiF3yfzqLPgft3AS7+QtWvdhplRumeeqzQdl8TdLe/i00PzkbCFO9ZOM0lH6D+Ed/hLCAHfC8sx+zrJiH71WF9lTpgujvfw5aHMpE8bjTGJUxC8txsFP2rFe+GsqRGlDn+qf79J47JG/BzdTmwozQbsxNGY/SVCZiUnoHC4k1o/ChIJq2Pxow3wpyxHKW1H6DjxBmc2F8Ni/YHo+6XYH1b87coAplLIhrZGOARRYwN21/1H0j4twN/CGlcBgHA+P6O2dJxwukZDhRZo+DzV/hQXBKBoLPf7XRVJtbtP4MT+5tQ/i+ZMHunIiSdjVi+WFhratR4ZP67HWe+tqPpt48j82Z5nIyXTjQ+lIdNw7qrWeR17VyOaZMyUPTqu9L6bGPkCW2qmmD/rFI/Li3q2fBmjT5Q+1GqZrmTgT7Xtk2Yl5CGvH9thK1Lem2aF6zAut/X44O/foDSAF1lAwqy5pvWmOSF2FKmP5N9AcY9Oj8dqA8lIhopGOARRcr7f8CmPsZp71bWBZ8JL0zdroH5dXqoTTBqf/03oXS/mC30vvmf5a0bDoevlj8OpzboSL3JT/fKAG6Ygx9po5o//8VPN89u7P2ztmY+Zst9jExmbWcjBxyHNX8GEal2GpN8G5aX1OODjhM4c6ITbXvqUf7IHP24xZbt2KFbKkIWb8JtD5aifk8HTpw5gc6/foD6367AHN2dHdi+0//FbmSZcJP2gr5ln++1ttod4c2mqGG6Udvu/rrROeHw9wBn38NvCjTT5C/Ygs6v5Qlt7rsNpqv6lwEfbF31G4XPxYW47Rb5v/0+1wnQLI3pQye2/LNmCYYbVmD31534oHYdVizJhPkGz5jVsCWa8CPt39tKsCnAmo4O3djMwLpbDvr8PtBnQv10De+LCUavccjeJsAYfKMBNPDvXaJYwgCPKEL2/rFC1yUv8zVpimvftw/wuPbL8oOXsD3MLMYl2j/anXDqvuy60LgzEtNoRx/jLdrJYPofHLy7bjNswoVC986XUKEdz3/bHJ/jAQObg8z7NH9+sgll9T6C7rZNKNOuQTh7IbLkEzTe/CPdBej26kbvbp+7V2BSwmxk/2oTdmgmQIl0OwEAxoyH8eZMLP/33fjPR7UX392Ar4stnTEYf4MZmQ+uw+7/b4VuXFh30PtGihFzbtO2qBUv/VF8TrrRuK7MTzAenHH2fN1ztqNaWJsQAD6qwEv+xn59sEP32jPdOl+e9VH2mTPghD/RovsrBxpLszHzp/oxxmN+/gvkK7Oq9vtcx2B8oBiwswE7tGum3Tofc7RPzlmn/oecsGRioXZdU9iwOj0Nyyv1EwlJ7ZCJeU9qX1Fj8KObA3yivPccNosTQ7ka8dKr2g+l+ZjjdzKhMI2/HJeLZV7G4/KrxLLBNPDvXaJYwgCPKBLOvger9ssXmVi8INBvw2bkFGojPAde+o9wvpZMMGlnxut+CatL90oTXnR34r0nM5CnWy8ohtxswaOaX3IdxT9BXqVDDWy6P2vEipkJmDQ3GyUvN8L2WZB2+OQ5ZNy7Ce91dgPoRufuTVh4v/aidDyW5+mnlQ9V5gO/0AQy3bD+dDaW/1E+1rPSY2X+RLuUwnhY1ngWSccty7FCM9lJ97ZsZJS+h07lXNsqkPfTl9DZZUPjC6uRNzcZ2b+Xf/vvRzt1dzlh++MmrM6djYRxs7GiyXM/nO1G50dbsPH32osrM0zKcXZ3wfnRDmz6VTZmJ4zD7Ecb4dBe8H5mw5YNf9AFPQM7wY/enLzluuCy8WcZKNndKT3frk689+Q8ZFeKF45hEJ+z6jzMfnCHvAaa/JxnPRckcPFwrFuNCnksWnfbDiy/syjKpsd3YHWK9wQ+465LQ/a/NgqZqPnYtNrXjLOS/p+rDbaWbuk12unjOdxWgpL3pfLuzvew6d483ZIW4cp8WFju4qwDFQ/KEwnp2uFdfZB/wwosV7KYPjnxXFYmNsmvy+7O97Dpp4Wwao51/IP5+iUFIshpkyZP6u7qRJe/8eHt+6RJkrq70PlVPxoxDAP+3iWKIQzwiCLhff0v0ViwGAs1a3/5Ys636C4OnK9uD6NriRGZGfqLYtu/zUPC2NEYPW4SMv4t9D0NP0as+K02cOrEjgfTkDBOvqCako2X2rrQ+VEjnvtlNmanr0Cjv4sUWdfbq5ExaRxGjx6HSXetxruaa4TxSypRPFu7dRhu2YT6R7SBvBMVBfKxjvV+rIQHKrEpQ/vDgAmlFdpzBfb+awYmKec6czl2aK9nxltQ/DPl8fraTp3YnpeM2QWrsWmnDV3dNrx0r+d+o8eOw6S5RbrHNZcVq7PFdm7LR/LcPKx+oRG2rm7YXsxGmvaCd8psFGkzmTevQ7F2KZGBNrsYv8vTtrENz901CeNGj8boK/28dwL9VuPFhJUb9YtfOyvzkHblaJ+vLy9pcyAv0S3p2oHlKVL7jZuZhwox49TiGCYZi/HIr7XCop3+PwLnOuE6/Q9lJenjpNfoLxrRnfAjzNbNBmvDc7cnSPuflIHVb4tPhAMOX12N/bm5FPVl4c7ZOB6W3xYH7/Ld9S5Wy69Lr2Mdn4/KNREM7xIm6L6LuqvzkDB2NMYlzMJGtdup0B2224q860Zj9LgEzCoXn5UBMuDvXaLYwQCPKALeE7pnzl+g76blU+pi5GsvPjo34Q+7NX8HYVpTiRUBxkQYH/6F/uIpltyyKfjiwgCQkIktf9qCzADBduajj/ufVnv2Oux+ObNf08zP+ff92P0vwS/G5vzLbt9rA96yCW27fhG8i+j4+d7n2qd2SoClejceDzGoTSisR9OjnsvVhAesIZ0vACDBgvqGFTBFYFKZ0I3Hwhea8LiwNpxHAiy1W/STe5h8L9nhz/gFldi9eX6A140Z657xM31IfD7WvRzgvuPnY8vGX2heJ3+BQwyEos0oEyz/uR+V4rplEThX8YcylfM4jsOE4ooVvusBAEb84vel8KwGacO+j3UbBGV6tCn01/soE1a83oYtuh9xfMhY4f/1OWoO1v2pEpl+G60P4hdisXYtTlWnZhKqMViYt1BfLdMuXD+wBv69SxQrGOAR9dfZRlT8ThfeIe8fgl5SAzBh8RLdT6Ko+GMY4+ZGzcG6v7ah+pH5MCrXC6PGw3SbBeXvdKLt+f4FJtEuIa8aHZ/tRvkD82HSzvA4ajwSbs7E4y9/gI6/1sMSYKp/ABh/ayk++Gw31mUbPReS483I37gbne9EIvgYjzklu3Gi4wNsEWejHJ8A85J1qG89gd0lc/w+X+PnbULbZx9gyyMBzvWTRp/n2qd2Gj8HpX86gY49W6S1vMQZNMdr1jT0CoCF871OmEFT87idR7ZE9kI1VOPnoPRPndi9Ubsw9RgYb1uB6ta/YsuCa/Xb94HpgUZ80lqNFbdpX1cmzH+gHLs/+wArAszeaCxsRNs75cjXzj463oT5j1Sj7ZNGWH42B56Ojg689AcfmYuhNmo8EpLnw1JWj7av7diS7fszsd/nmlqKD95Zh4WJ2veVCfNvlT5bx9yyDvbWaqy4zeQZ3zcmAeYl5dj9WRs2LcnEbM2hWV+1eo+ZDCjI631Mgud99rUd6zJCeMFfNV96fZYt1H22m5eUY/cnuwMuX9I3Y5D/WhuqHzBrxkCOQcLNmfjRVZ7vtjF5lWirsugWcx+TYEbm3433Hhs8UAbhvUsUC+J6e3t7e3p6xHIiopjkfD4NycWeLkX5tWdQuUC3CY10LiuyryyEMvF9wq8/QMczfvO8RP3TvglpKas93U+X1OPM72O2/8XA4nuXCGAGj4iIRhLn8/OQMDMThaVb0KiZdVTR/ZUDFfcXqReIADB/Di8QiYYa37tEoWOAR0REI4bx5pvQ3fYurP9ahOy5yZ7JYzSzHi7XTgIz/hf4xWBOAkNEPvG9SxQ6BnhERDRyzPsN6h8OcdqFUXOw7k+bMKff4zCJqN/43iUKGQM8IiIaQcbjtufb0Pk/W/B43nyYrhMnvRijmRxkICa0IKK+4XuXKFScZIWIiIiIiChGMINHREREREQUIxjgERERERERxQgGeERERERERDGCAR4REREREVGMYIBHREREREQUIxjgERERERERxQgGeERERERERDGCAR4REREREVGMYIBHREREREQUIxjgERERERERxQgGeERERERERDGCAR4REREREVGMYIBHREREREQUIxjgERERERERxQgGeERERERERDGCAR4REREREVGMYIBHREREREQUIxjgERERERERxQgGeERERERERDGCAR4REREREVGMYIBHREREREQUIxjgERERERERxQgGeERERERERDGCAR4REREREVGMYIBHREREREQUIxjgERERERERxQgGeERERERERDEirre3t7enp0csJyKiCHP3nMdbB134qOM7fPJND06fOS9uQkQBjL4oDteNuwgzrx+D+dPicd34i8RNiIhGPAZ4REQDrOXzbrzw7lfY+kEXzp3vFauJqI+ybrwUD8+7Cn9viheriIhGLAZ4REQD6OmdnVjb+IWu7OYbxmLK1WMQP/pCXTkRBXbm7Hl0fHMGH31yGt/1eDLg//jDy1H+04mIH82RJ0REDPCIiAbAufNA/quf4PX9JwEAxqtG459/nIDc9Csw7hIGdkT99Yb9W1S8/wX2HnEBAFKuHYPt90+CacJocVMiohGFAR4R0QBYuMWJN1tOAQCWz0vAU/dcL25CRBFQ8f4XWFP3NwDA5Ksuxq5fTsGkKzg2j4hGLvZlICKKsFV//FwN7p5Z+AMGd0QDyHLLNaj65yRceEEcjn7Vgwe3fSpuQkQ0ojDAIyKKoHfaXPjte18BAB6981o8cOs14iZEFGG3JV+GzUsmAwDe/asLG9+W3oNERCMRAzwiogja8N9fAgBmGeOxKmOiWE1EA+SetMvxT3OvBgD8+1tf4Ow5zlhLRCMTAzwiogjZ/1k3/tshTfjw8PwEsZqIBtgv77gWAPD16XN47YNvxWoiohGBAR4RUYTs/FiaMfOGK0fjrtTxYjURDbBrx12EbPMVAICdH0vjYImIRhoGeEREEbL3qBsA8OOkS8UqIhokP5kmvf/2HDktVhERjQgM8IiIIuTwF2cAANOvvUSsIqJBorz/vjl9Dl+5zorVREQxjwEeEVGEfOs+BwC4fOwosYqIBsmVYz1r4J347ryujohoJGCAR0QUIcqcfXGIE2qIaLDEad5+nEeTiEYiBnhEREREREQxggEeERERERFRjGCAR0REREREFCMY4BEREREREcUIBnhEREREREQxggEeERERERFRjGCAR0REREREFCMY4BEREREREcUIBnhEREREREQxggEeEdFwdmQD5l0Wh4mXpWDLEbHSl6PYMicOEy/T3oLc980lQbd9+0Fxn5rbgw3i5l76fP8gxxZwv/Lt4Td9bDtnAzr0u9LpKE8JeIxe9V43z7GGc4y+BDpu9Tj8lXvt2/P68JQLrxlfz0fYr0MiIhooDPCIiEaKIxsw77IpeLpVrDiIp81+LtwBvF1XpfnrILa/cVTzdwisC7wCjLAEuH+/j03VgFqr5s/WV9HgJ1DpKE/BnCcP6gutC/y238AKfNyTpt0klzfjkFp6FA3bPcdfV6c57iO12N4KANMxI1ksk1m34W3Nn0REFF0Y4BERjQgNeNi8SrrIT1mPvSd7cUy+7X1murSJdYGPTJESQExHTr603aHttT6DLQBA/k51v8dO9uJYdYFU3roKS8tDCL7Cun/wY7vjZR/7QgG2ah7jxbsBvLkNdQCQUoCcFAQIFhuwTg7ukp45ot+vdZV39kpoa8+tFcunSJuEfIy+BDvu5HQkAQD24ZB6bAdxQBuw7T/oabM2JRC8CUny8XW88apUll+AHABAFWq9XidERBQtGOAREY0AHeWrpEAABdi69zFM0tRNKmpVg7y6UiFTpgYQD2D14w9IwUKA7JaXu7ep+xaDr5AEun9/j01DyQQmLX4Wqxf7eTzBjdMmS/+5+1k8JQdXB9qEjQZY0OOekovFYuCnttt0rzbr+Os+6T/5S3AHoMv25eRsQ26+VK3L+hERUVRhgEdENAIcapG75KkX7nqT7vEdIHkCiFxM8hUshMDfvkPl7/6RODaJJxO4+J7Jfh9PMh0zUqT/1eUpY9smY/neIJm2ARHKcU9G0kzpf8prQAnikhbvxFP50ASmnmAuKVXO6qrdMwuQezdwR46SrWQ3TSKiaMUAj4go5h3Fof3S/9QLd9GU6bhRLNOM75KyVZOR5StLFIzPfYfB5/0jdGzQZLSUbokBg8XJWF61Xu72KHUdnRNochG1XrhFYrxeiMetBmX7D6JDE8TdOG2yWidl5JSum1LACG33zBS5q+fdS9hNk4goyjHAIyIi39QAQsreAMCkovXSBb7P7NYgiuCxqRO1qNnNyVheIgU+PoPFKY9h98lebJW7K0qkiWq8xzAOnJCPWxmH19qMQ0JGTq2zbsPbRw7iY0Az/k6T0VucK3frzcJqpTsvu2kSEUUlBnhERDHPu5ueF/Xi3sMzQ2UVlqrZpwVyYOUru+WHj32Hxcf9I3Zs2lkorQs8GbY8ef8BgkV1chSbJ6PnNYbR3yQrL2dpt+qDMI5bzYBWofY5eRIVJShUs377cOgNuU7J1mlmzzz05BT1MdQZRNlNk4goKjHAIyIaAdSumX4uyj1d8R5A1hR4T7/vg8/sli/KzIzqvsPkdf8IHpuaCfRHCBbVdfeWeNpxymPYrc5+OUjCOu4sz+QoVnncotpVV+naehBPP6kZ06h9TfjFbppERNGIAR4R0Qigdl9EFZZqgxNhXTe1K56mC6R2un5dxqp1FdYFu8A/sgHz5KySp5tfGHzdP1LHpuvmKCzPoFk+4tCTT3jaS112oApPq8s2HMWWUu16fAMv3OPWj730jLGDdq08mTSmUdM9U1kOQnNTuqd6ZSyJiGjIMcAjIooJ8mLl4mQe6uQfWXhR7Uqo7dao6XKXvxO7i6QLf+/xXRpqtz4f47C03QUvi8NEzdp7W+V9BxTC/ft8bF48mcCcHO8uk+qslNpM1ZTH5Jkntd0WPYvH55Tol6DwO8nKZf0Zrxf+ceuDOM8ad4B24hR4FjjXLHiuDQYV6sQtXl1Yg70OiYhooDHAIyIaKaY8ht0nj8hrtmlNx1M27bgwTwDhe9ZNz4yV/rp8aiU9cwTHhLX3wqG/fwSPTc0EykGNyE+weMfLmsXhVVIbDsoyCX05bm0Q5xUYe7pwKt1gPd0zhWBQoe4vnPGOREQ0GOJ6e3t7e3p6xHIiIgrTtY+34pvT5/DSP05BtvlysZqIBsGn3/bgh2sPAABankrG1KsvFjchIoppzOARERERERHFCAZ4REREREREMYIBHhERERERUYxggEdERERERBQjGOARERERERHFCAZ4REREREREMYIBHhERERERUYxggEdERERERBQjGOARERERERHFCAZ4REREREREMYIBHhERERERUYxggEdEFCEXXRgHAPj+3HmxiogGSc9Zz/vvogt1VUREIwIDPCKiCLn2sosAAJ992yNWEdEg+VTz/ku4VHpPEhGNJAzwiIgiZMZ1YwAA+zrcYhURDZLmjtMAAFPCaIy5SMqqExGNJAzwiIgiZF7SWADArtYudH13TqwmokHQ1NIFALgtOV6sIiIaERjgERFFSO5N49SMwR/e/0KsJqIB9t8HT8D+NymDvuimcWI1EdGIwACPiChCxl58AR76yVUAgA27Pkf7l93iJkQ0gNY3HQMAzE+Ox4+nShl1IqKRhgEeEVEEFWdeg2vHXYRz53ux6j8/wdnzveImRDQAVv+xA/s/lbJ3T2ReI1YTEY0YDPCIiCLosjEXoPx/TQQAfHDUhX985TC+Pn1W3IyIIuhfajuw9S9fAgBKFiTgVmbviGgEi+vt7e3t6eGU3kREkbT5T19j5f8ndRebOP5iPLHgOiy86QpxMyLqhw+OuPDcm5/hg6MuAMDyn1yp/sBCRDRSMcAjIhogWz/4Fj+v+gzn5G6aM683INt8BeYmXoqp14zB2NHsREEUjp6zvfjk6zP4H6cLDfu/xbttJ9W6f8m8BiULEnTbExGNRAzwiIgG0MHjZ/DUG8fx+n7PhajiAi7RRRQWX0Na/27SJXhqQQIyUi4Vq4iIRiQGeEREg2BP+2ls+7ALja2n8Om334vVFCVm4UNMwRGcxlj8F/5BrKYoMe6SC/H3pnj89ObxWJh2mVhNRDSiMcAjIhpkn377PTq+7cHpMz7SETSkDn7QhEMfvYerrkvE3OxlYjUNsdGj4jBx/ChMvXq0WEVERDIGeERERLI33ngDu3btwrRp0/DLX/5SrCYiIop6HOFPREREREQUIxjgERERERERxQgGeERERERERDGCAR4REREREVGMYIBHREREREQUIxjgERERERERxQguk0BERCPOiRMn8Morr4jF+Pbbb3HixAmMGTMGEyZMEKuRkZGBG2+8USwmIiKKGgzwiIhoRKqrq8M777wjFvvFtfGIiGg4YBdNIiIakW6//XbExcWJxX7Nnz9fLCIiIoo6DPCIiGhEGjduXMhB27Rp09g1k4iIhgUGeERENGKFmsULNRAkIiIaagzwiIhoxBo3bhxuv/12sViH2TsiIhpOGOAREdGINn/+/IBZPGbviIhoOGGAR0REI1qgsXjM3hER0XDDAI+IiEY8f2Px/AV+RERE0YoBHhERjXi+xuIxe0dERMMRAzwiIiIf2Tox4CMiIhoOGOARERHJWTyj0QgAMBgMSE1NFTchIiKKenG9vb29PT09YjkREQ2Qw1/2oOObHpzuOS9W0RDbs2cPWj7+GFdceSXuu+8+sZqG2OhRcZg47iLcOHGMWEVERDIGeEREg+CdNheqPuxCY8spfOk6K1YTURhGj4rDndMvxU9vHoe8m8eL1UREIxoDPCKiAWT/9Ds8+UYnmlpPiVW45GL2kicKx5nvz+N8r75sxsQxKFmQgHtmXqavICIaoRjgERENkFf3fIOHtn+m/v13xngsNF+OuVMvxdRrxmDUBd7T8hNRYB3fnMH/HHVh5/4uNLV0qeWr/v5qrM2eoNuWiGgkYoBHRDQAyt/5Cr+u+xwAYLxqNJ5YcD2yZrArGVEk7es4jefe/Az/95CUIX9g7hXYvPg6cTMiohGFAR4RUYTV7DuBJb/vAAD8/fRxeHHJZFw65kJxMyKKkJLX/4b/86cvAAD/knkNShYkiJsQEY0YHABCRBRB37jPYcV/HgMA3DL1Urz2wFQGd0QDrPTeH+D+W68BAPxr4xd4768ucRMiohGDAR4RUQSVNX6BL11nMXrUBVj/v24Qq4logDy78AdInzQWALD2TSmbR0Q0EjHAIyKKkJPd5/HSn74GADx617W44crR4iZENIBWZUwEAPzp8Glm8YhoxGKAR0QUIXW2E/j+XC8uiAP+ae7VYjURDbDbki9Ts3h/3HdCrCYiGhEY4BERRcjuQ1LG4K7U8Rx3RzRE7kqVZqt976+nxSoiohGBAR4RUYR8fOwMAMD8AymDQESDT8ng/fWLM/ju+/NiNRFRzGOAR0QUIcdPfg8AmDj+IrGKiAbJdZdfrP6/8+RZXR0R0UjAAI+IKEK+P9cLALjoQn60Eg2Viy6MU/9/lgk8IhqBeBVCREREREQUIxjgERERERERxQgGeERERERERDGCAR4REREREVGMYIBHREREREQUIxjgERERERERxQgGeERERERERDGCAR4REREREVGMYIBHREREREQUIxjgERERERERxQgGeEREw9ZRbJkTh4mXxeHhN8W6yOkoT8HEORvQAQBowMNhPJ7+vn3w5hJMvEw6R69bf/YbQR3lKZh42RK8LVZEsyMbME9sT/k2r/youHWIGvBwlDwnREQjGQM8IqLh6kgttrcWICcfqCsdrAvrLLx4shcv3i2W+zapqBXH9j6GSWJFWKbjKVsvjp3U3o7gKazCHAYU/ZJTLbbrTtz45BRMfLBB3DSotx9cgDqxkIiIBh0DPCKiYarjjVdxKCUdq3MKgNZX0XBE3CKWTcbyqvVIGnHnPdCy8KJtPZKsC0LO0hIRUXRhgEdENCw1YN2TB5G0OBeT7l6CHBzE9jfErnVKd0rpX7Ubnpid8dFdz//FvdhF09NN1Nd9vbpoil0u+52BO4gDbZ6/3n5Qeywp2KIN/t5cgolzNmCLso3y2CEcU8D9yg6Vp2i28dFlM0g7d5SnYOKDGzztqTxPQe4nHf8SvC2ch//nMIgpj+EpH1lhfRto20l6DSy1AmhdhTna9hHb1k/bERFR5DDAIyIajt7chjpMx+J7JgPIQm4+cGh7rVdgAgB1easwQ+niWF0AaLMzRzZgnnkVbtR01dv7zHTU5YVyIX4UW+ZMwdMzd3q6+FUX+L/vm0swMW+fprul3M1SDDhD1daMQ5iOGcnSn28/GIel1gJsVY/lJjxtFgKd1lV4GvLx7n0Mk0I4ppD2iyo8vf0B7JW32ZpfhaXaIC/UdrauwvbFR6RtXs4K/X6owtLSdM3jA3V5PoLMECWlTgdam3FI/vvtB+OwdP96df/HTu5ETqvSTpOxfK/0mEhZj70nW7F8iq/nuxdb8w/iaXPfj4uIiIJjgEdENAy9XVcFpDyArCnS33fkFACtq7DOR9Ym6Zmd0gU3ANz9LJ5KAerqpABG6ua5Hqs1Y+om3fMAkoTMmG8HcaBVDgYUd2/DMeUCX9Dx130AbkKSWicFBsdeztJvGJIGPJynaYMjG/C0Fcip3oY7lE3u3iYFOrpM1HQ89bjn8YIeUzj7rfKMNbzj5Z3IQRWelicsCb2dC/BU0WT1r9DvJzz+4+uRhCrU+ng9hGLStJs0fzWg1grklGjHUko/KmD/QZ8/KkB5jeav170W7sgpALAPh3z9AEBERBHBAI+IaNiRLriTFud6LriFwE3rxmmegEGknQRFmg0yDhPNq9TMTWBy5vDJKT67NYqkwKQKS8PuPngQT5uF7oGXLUBd/k7Psb/xKg6hALnC5C9S4OvJROmDueDHFPJ+NcG2RG6bloNAOO2cko4kzZ8h3084r8jSTqzj6e671Cpup3fHy55AWe3emVclbkZERBHGAI+IaJjpKF+FOsiBlRrwTMHTrQCs28Lr/qYZ3zXnyYPSrIq29bogI5A7Xpa6DEpjr+Rj8dflcspj2H1yJ3IA1OWFMybL1yyavjJ/UqCmCwSDBRQhHVMf9ivqazv39X79JGU2PTzj7xagLkXqqrk1X7eJN834u6VW+TmsLhC3IiKiCGOAR0Q0rBxFw/aDQL5m3Jtys4XfLe/t51bhkHzBfiyM5Q+0JhW16saHwbogwFpqUjZIHceFSI7J0oyT09003St9CnZMfdnvURza7/mrr+3c1/v116GWg0D+Eun81G6q8nmHtOzFUWwprdK8Tn132yUioshjgEdENJwcqcX2ViAnR8xeAZiSi8Up4tiwQKQgRNfVU+2W2DeTilqxVdM1MTB5Sv4IjMmSxox578drFs+g9McU8n513UAhjE/sazv39X79pAR0ymusrdlHN1Wpm7B/0vmLr9O368LMfBIRUdgY4BERDSNvP7fKx8W2YjKyFk8PY028yUiaCRx68gndbI9Ln5SCs4//6i8Lp5DGY+mydWJwoCGNIdNn66QMlTh+rQ/u3uY9Q6N8LvrJQfSCHlPI+63CUk3AJy36rUyY0td27uv9+qMBD5tX4VD+Tk+2MDkdSZoJY6Cen6/AVjEdM8QfG95cIo/bEyeIISKiSGKAR0Q0bMhZE6XrnA/KDIvea+L5dsfLR/BUimaMmflVLLZJY9KCZ+Gy8OLJnbhROxbQvAp45ojProSTilqx95l9uvFsS60F2BpSl7/g7nhZWZ7Acyw3Vgfu1hjKMYW035T12Lr4VXUcorSkgKcLZ1/bua/3C5Vn3KFnjN3HzxzRj2+c8hh2VxfoxnwuxU6pO64mu3nH4+uRJI/FfPjNyVi+V15KQdl3HrBVHj84MMEpEREBQFxvb29vT0+PWE5ERGG69vFWfHP6HF76xynINl8uVhPRIPj02x78cO0BAEDLU8mYevXF4iZERDGNGTwiIiIiIqIYwQCPiIiIiIgoRjDAIyIiIiIiihEM8IiIiIiIiGIEAzwiIiIiIqIYwQCPiIiIiIgoRjDAIyIiIiIiihEM8IiIiIiIiGIEAzwiIiIiIqIYwQCPiIiIiIgoRjDAIyKKkAvi4gAAvb29YhURDRLt+096RxIRjSwM8IiIImT8JRcCAL45fVasIqJB8rXm/TfeIL0niYhGEgZ4REQRknTNxQCAg59/J1YR0SBpPSa9/66KH4UrxzLAI6KRhwEeEVGE/GiKAQDwp0MnxSoiGiS7/yq9/5T3IxHRSMMAj4goQhbceBkA4G/f9ODNj7vEaiIaYJ9+24M37N8CAO6ZIb0fiYhGGgZ4REQRcuPEMchIuRQA8L/fOS5WE9EAe+HtzwEA11w6CktnXy5WExGNCAzwiIgiaNXfXw0A2NdxGs+9+ZlYTUQDpG7fN/iPvV8BAH5919W4gFNoEtEIxQCPiCiCfpI0FivvuAoA8MLbx7Fld6e4CRFF2FutJ/DwtqMAgDunx+OXt0nvQSKikYgBHhFRhD238FrcO1Ma//P0G5/iiR1/w/fnuDYe0UD43e5OFP7+MABgWsJo/J8l14ubEBGNKHG9vb29PT09YjkREfVTwe878Md9JwAAE8dfjH/+8TXITb8CV196kbgpEYWh52wvXrd/gz+8/yWaO04DAMzXX4Kq+ych8WppuRIiopGKAR4R0QB6rukLlPyXvpvmjdcZMOXq0YgfzTW6iMJx5vvz6PimB80dp3HuvCcrfv/cK1D+vybi4lEceEdExACPiGiAHf7yDF5492ts/eBbuHvOi9UURcywqf+3wayro+iTYx6Hh+ZdiZ9MHStWERGNWAzwiIgGybnzvXjL4UJzx3f45OsenGawF3UuOfZ/Meb4Xpy9dBJOJeWJ1TTERo+6ABPHj0LadZfgtmljcVX8KHETIqIRjwEeERGR7I033sCuXbswbdo0/PKXvxSriYiIoh5n0SQiIiIiIooRDPCIiIiIiIhiBAM8IiIiIiKiGMEAj4iIiIiIKEYwwCMiIiIiIooRDPCIiIiIiIhiBJdJICKiEefTTz/FJ598IhZj//79aG1tRUJCAubPny9WY9SoUZg9e7ZYTEREFDUY4BER0Yi0efNmHDx4UCz269JLL8UzzzyDCy+8UKwiIiKKGlEd4B0+fBgTJkzAn//8Z7EKU6dOxdSpU3H8+HHYbDaxGmazGRMmTAhaf/jwYRw+fFisxq233or4+Pg+12dmZgLyOQSqt9lsOH78uK4uPj4et956a0j1f/7zn+Fyufpc39jYqKsDgAkTJsBsNgetd7lcAZ+bga4P9twGq/f33AR7boPVD7fnfsKECeqNaCRxOBx48cUXxWK/7r33Xtx5551iMVHMO3z4MOLj431+p/r6XtHiNUXga4Zg9cPtmkKLz33g51asV67F4uPjER8fL24elqgL8JQn4fjx40hMTMTMmTPR2dkpboaEhATEx8fD5XINSH1iYiIgH0+g+s7OTq8X/GDWt7e3i1WIj49HQkJC1Nf7a9tgz81A1w/n5x5B6sXnRjnH06dPqx90/f1QIRpOQs3iMXtHI9Gf//xnHD58GAkJCZg7d67P70Txe0U0WPX+vrODfecPdP1wvqYIte2Hut5f2wZ7bga6Ppzn/vjx4+iUr8fi5cA5vh/XY1EX4DU2NmLs2LGYOXNmv06MiELncrnw1ltv4ZZbbsG1114rVhPFrFCzeMze0Uhjs9lw+PBhzJ07V73IJqKBZ7fbcfr0afz4xz8Wq0IWVQGezWbD559/jrvuukusIqJBwgwFjTTBsnjM3tFIc/z4cTQ2NuKuu+5icEc0RC644ALExcWJxSGJqmUSrrnmGgZ3REPs0KFDPrtxEMWq22+/XSzSmT9/PoM7GlF6e3sZ3BENsd7e3j5fj0VVgMcPEqKhZ7fb+/yBQjQcmUwmTJ8+XSwG5OxdsACQKNZMmDCB12REQ+z999/3OblLKKImwDt+/LjPAZRENLjGjh3LAI9GHH9BHLN3NNK4XK4+X1QSUeQoE8j0RVQFeL5mmCEiIhpovrJ4zN7RSGW328UiIhpGoibAIyIiGkpiMMfsHRERDUcM8IiIiOQs3lVXXQXIs8mKAR8REdFwwACPiHTS0tIwYcIEsZhoRLjhhhsAAJdffjmzd0RENGQSEhKQlpYmFockatbBs9lsOHXqFObOnStWEdEgG4oL266DZ/C3/zqJL/5yGif+2oOeb8+h93yvuBnRgOr5/nt8/30PLrzgQowZM0asJhpYccBFl16ISydfjKtmXYLrMy9Fwi1jxa0GlMvlQk1NDZYuXSpWEdEg6+taeFET4AHAiRMnEB8fLxYT0SDq7OzEZZddNmjvxS/2uHFg/Rf4285TYhUR0Yh31c2XIHXl1Zj8v8aJVQPm5MmTGDt2cANLItJzuVxwu9249tprxaqgoirAO3funFhERINs165dSEpKwtSpU8WqiPvoyeM48G9fqn+Pve5iTPzJZbgi5RKMuXIU0IdfrYiIhrOek2dx4lA3ju85hW9av1PLJ/90HOZuvh4XXTrwo2vOnz+P3l72oCAaSu3t7Thy5AgyMzPFqqCiJsA7fPgwzp8/j8TERLFqkDhRPisFxS1iuSIPde4KZIjFATQtMyCnCsircaMiS6wNnbKfvhxDdHKifFYuYG1Gka+nu8ECw6JqsVRlWtuK5pVGsXhAOTemI2WNQ/ojtQytHxZhcI9g8AxWgPfekg44a04AAK6cYcCMX06A8R8uFzcjIhqxOj9w4eOXOvG3XV0AgCvSLsHtNTcgftJF4qYR43K5sG/fvtgcMjOg1xdNsBisyNdep7WXI31GJe59FPi35x1AQR3cr+iv4pRrvMCP3QSLIQfV/q4DB/S8+kh3TH6OmwLqT4A38D8DhcjlcsXcOngZr7jhdvcvuAOaYK1S/l+N4o1OffWwEyyQjkZO1Fc55A8oN9wxHNwNlj/909/U4O7GXyTgnqbpDO6IiAQJs+Nxxx8S8aPnJgEAvrF/h3d/+gnOus+Lm0ZUe3u7WEQBKQGYnvP1SjiQhh9ZCmECgCormnRbKNd4eSgb7ABsgDXVVgMwoeyAG24Gd4MuagK8oWdE0YdSQOZ2t6IsFZoXphuta+3IMRiQvsyCdIMBBkM6ytulzI7BYPDcZpVDCcGalklllgbIb34DDAYLyrX3WaZ/q4ucG4tRDcBUkAcTAEdVvbp/qV7aV7oa+DlRPkt6HHXP7eXyMUuPp9xHOi5l+3SUb7SoxyXtT6kT9qc5N6865bFmlaNcs41nf0pw50DxDO1xa2RVyM+DG+6aPKmsoE4uq0PamhQYDBZYlP0va9K0r+cmnV+wY5I1eM7dIG8r1TbBYlCOuVp6DSj3E+6j3Z/6vGhfL6/K2y8r925Xzb58tkkM+XjjVziyXfo1Or34Ovzdk9eLmxARkUbyz67G7a9KXV6+3vcd/vL/+0zchEIR8PrCjeZ76z3XS17fx+J1hnQdqA/upOsE5fqjrcUBFOQjI7EIZQVSvVW5NgGABqt0v4J8ZOiuuXw9fgBBzqusJQUGgwGWZcq1hgVNAR8vlGtWf+0h7VfqeSZd66n3016PivtTr9UssMjHlf5EiY/rN/lxhGtb0mOAFyZHVTUcAJBaiOw2i6fbnqKlGLkB35DVKNbepyrHE4h4UTJHJhQWl6AwFUBLJerD+mGtCZYZxdIxQ3q8XDUjqOVA8RrPb0+ONblI12XaqpEjv4E8XUY1dZrAFpDaoVizjWNNrvzGj5RqVMv7z8tNRvks71/Oqhfpg1K/x9RejnSxa0NLMVICfWD46A7hWJPi9SGje70oY2SrivXtOitd9/iRb6vocfpv3+Ojf/kcADDtH6/CzF9yOQYiolBMuns8Zj/7AwBA+7YudLxxUtyE+qO9HOna6yX5e93zY7h4neFA8QzhOkNHys6ZUpMBABm5UuBVXavcw4nyEmmPebkZaFrm3bsp0tcD1VXyGRTkAyE9nr9r1j60h4/2RVWOLjECAGipRnULpGvfO66Qy7TXbw4U56fr9xXwWnpkYoAXrtQytCrd9LS/mGh+NXG0tIn30smrkbavK5D+trf5CQjb61HZIgcHiUZkF5gAOFD5up/tfVAygOpxu+uQ1iIEpTLT2lbNcTnggHwf5dcguwNOpTuBuj83WteagJZilOreXEr2U8mGOmBrM6LoQ312tD99wpV2rMjSZl+1j2mHQ/dB5euYNNWaX7vcbrfcTz4DFe46SC0gddFsXgnPh7J8DG5lm6pi/Yej9vWiFspdPQ+USV02WhxIqwlwXIMsLS1twMbftf72K/SeB8ZcOQqzSqQLFSIiCs30+6/BdbddBgBoKf9KrKZ+kLpTen+vV5doAxD5+1u9VSDDx3VCRRaAdgfsANKS5W//rHz9dYJyjYc85Gd5hvUoN+VaLKLXA8p1zisZIT9e4GtWX+3hfa3nfiUDTWVSQKZca6rXPH6vH5tRJPVM1pTJ7dziAHTXrOJxxYaEhATccsstYnFIGOCFyVSQ7T3+SkkTi1kgn6Q3MjS/5vijfNgoj2lcWYY8eHfTDKRNDubySpUAIwMla03CVpB+KblX2iI5VapXzzXZLAUi8HxgoaUYKXJqXMli6t5cqYXITgQAJTCNNE87akldR71/lQICHFNitpQdrcrx0U3BBzXwLkOJegxKu+o/HH2+Xgrypb7oiSZIy1cq52KEqW/rWUZUQkKCWBQxh7d+CwBI+ecEXDSWHz9EROFKeVD6jO78v6fxjd0zyyb1j3K9VL1I6QooZ6habGhTrxukLpgGudtggCsFoM0Gh+5aJQP5chBV+brTc423tkQ3Pk0Z4qHvKRUZebneI+ECP56/a9Zw28PXWEMjikqlffq+ftRQy5JhlgNH8Zo1FsXHx/d5yaqoucIym82YOXOmWBzdlHFTZSY0uzWZrohQumfKXf90HzaBumm2weYruBkEwTKXA8czjtBRrPlVKGRKBlD5BU5uc38fVmpgFpva29tx/PhxsbjfPn/PhTPfSEuhTMmRu10QEVFYrrvtMlw6aTQA4LNdLrG63+Lj45GbmysWj2BSbyDjymZdxkj6oVsZd+atqbYaSDVD6qApUYIkR1UpSpUhOHKgosxtUJosPM4A6e/jhdceSmBG4XC5XDh8+LBYHJKoCfAgf6gMJ9IMQZ5fRJxtdmGLfmgo9Z2FAqT+x2XCWC8luFIG7MqUXzY8XQyaUCqOGwyHEtxoumiqN2Hq30Gj68qKfgS5GajQdRvwF0jLH1S6bgVKu5pg1n6aD0Pt7e1wuSJ/0fD1R9IvzeOSxiD+BxeL1UREFKKEOdL10lfy52qkDbfrsUhQrpc8XTSVm35JJ6VrY6vca8f3sBknHHYfvXiySuTrC3mcmXrd4slwSRkz6f4DJ3KPF1p7KD2UtLPBe8Ygqt1YSaezs7PPM9pGTYB3+PDhPp/EUFPS+V4TrvSDEjx6+irLN2XcljzVrjFZziUp3QuFbqJKt05Pl8oc2PuVzpa7GGi6aEo3f7/a+CPMrBQJmnMMpbOsSpxBU+ni6aubAKDrVuDVlaOgzPfafgTXJ98DAMZNGSNWERFRGC5LlD5HXc7Ir2Pscrnw/vvvi8Uxz3ivtJSB53tdvvmZqVu65vNk4CTybNtPVKCyxVfgoh8i4hk+o1C6PPoZahJxfX28UNvDI6NYun719EpTrrW0w10oUqImwBuO6+BlvOLp0icNAJUzP17rnIRL+WXFxxtFGS+mTLWbVaFLq5vW1knHoMpAhRIUygFjbZhpeFHGK96p/LwaP4uWe/EERxGTWIRa7bjCgjq5u6y/X5IEWRU+utfmoS7Qenc+7mNa2zp0WcxhQFm36aL4qPnYISIali6OvxAAcPb0wKyHN1x/cO+XxCI0a66XALm3kteEax6eax9hfoMvD8Lhp0ePEkjq5xLIQIX2miK1DK3ysXhm3Yyk/j5esPbwwVf7FtRxbeEBEtfb29vb0xP5X4DCZbPZcOrUKcydO1esov5Qp/PPQ5280KSyzEFeTX8XYadYtGvXLiQlJUV8Js0/L/sUh7d+i8T7rsCPfztZrCYiohA5Kr7E3jUdGDdtNHIOTBOr+8XlcqGmpgZLly4Vq4hoELW3t+PIkSPIzMwUq4LiT+mxTp0B0zPTkTRTku9ZKImIiIiIaPhigBfrEovQ7NX90ISyA1I2j0g0kOvgEREREVFwXAePAhMXZBdmhCLSGsh18IiIiIgouJhZB4/j74iG3kCtg0dERNEvPj4eP/vZz8RiIhpkMbMOHhENvYFaB4+IiIiIQhMz6+DZ7X1cZZGIiIiI+s3lcmHXrl1iMRENI1ET4LlcLpw+fVosJiIiIqJBxG76RMNb1AR4RERERERE1D8M8IiIiIiIiGIEAzwi0pk7dy7XwRsSDSicGIfRfm6Fb+m3dm5O8dpGf0vBJmfw/Y6euASNusf3cb9HGvQPrqlTj+utJdK2t2+AU9ja61jF/QW4r8q5AWlexy7cbl+GRWKZ7qacq7fGR7T78XUcYbaHjzrpprSvv3rx5n3MXu05MQ5pm48KW4W3X/0+xWMU2sfHManPoZ/763g9l+L+xNciEdHIk5iYyHXwiCgy+rrmCg0sa6Gvi/hBUrOqzxfazs0pSH72oL6wZoGPIGkwVCHbK5gAgAZsr9H86XgVOwKdb8jt0YDCiQtg1ZUdxOq5fQ1cjmLT7XHe7QnA8ewUH4FSIP7aAgAOoqJB+1oT2seHxjeqNH+J99dwbkDa3FVw6AoDHQsR0cjV12uyqAnwuA4eUXSw2+0cYD/E8it7ceaY51a/SCp3PLvAOzAwrUebZlvPrRUrjPpNxf1Kt23I1G/mw0Gsvt9XViuYBpTIwYjpiSPS41UWSFUhB0ky42Owq8d8BOtMUrG632O9OPNOLsbKm3uf607kAwCqsF3Msr21TQrCTAXINyFwgAKE3B7Ozavk4K4A9brjPojVz3sHuN7HrH9+Gh+ZgtUOAJiOdXs02+xZD6k5qpDtI3D23m+AtpA5HJogUmkfv5QAcDryF00HADhqan22T+PzcnCnvm49x7J6qH7AIB2ug0cUHTo7O2Gz2cTikERNgEdE0aGzs5Pr4EWZzBc8gUHgwGMAOVahxE8wEApz0mTpP3c+q57LvkPCRgNqOm6Sg0LbIX0bKtkn06JnURokQFGF0x6mdDkAm4wVxXKA+/HBwPsXOTdgtZxFy68UgnfjY7ArQV5IgbP/toBpuryfbWpGzXlon1RlktrGixogP4DSRx+Q7h8sC3rjdEinkIXSJ+Q21waVREQjnMvlQmdnp1gckqgJ8AZnHTwnymcZYDAIt2VN4oZ9JO3f4v0Davjay5EuHqehP/tugsWQjvK+rZeo4b2fpmXaY7QgUq1JRIrJWBhq4DEAlAt7a2G43eg8gYS1UBnbNhkr3pEySZV3itsPIGctKuR+gWqwCeiyT5asyTBmBQ9QQm0PY9JN0n8cq5CsjM+7c5ucbXxMDnBCdKhZ7tZYgMW+2s2YC0uoPwL4bQsAeACWRQCwDw4nABzFjpqDUvssks9H4AmQc2EMchxqkFizQB1jZ3yoVWqTF7LEzWkIcB08ouEvagK8wVwHz7S2FW63W7odKIOpqjgCgc9AMKHsgHycbjda15pQXVLex4u7DFS4m1GUKJb3hxTQ5qDO0541QA6DPKKIU4MFkRw8eE2i4aOrnrXQezvvSUG8mYvX97Eb3WSs+L3SfVB7rH0dgxY6r3NVxn2Z1qNUGyCp3Q9vgskYWqAUcnvcuU3tXgvtMfl4buDrmDXPj5JF82QDRZNhulEsk3jt119byKQgTDn/g9jngNQ+SeKW0I3Pk4LFwD9GGB/aqXavlcYjSsc0ZONLySd20yca3qImwIucJljCySQlZqMw1QFbm/x3g8Vnxsy5MR2GZRZ53/qsn5rBmlUKfU9Z5Vi0xyNn+TZ6MnSWBk1mMUA20XhvIUwtNiiHqs/yec7XuTHdcw6zlIDQk3nTZ9w02/jZny7zuUwzEqO9HpUteah7JcNTllWB1gP5SG6H+piWZeme/WnbVz1X+dg2KnWRyDQSUeRkoVIeO+dzHGAg8tg5baCjXNiHElxGUn6ld+ZMnRxk0RJ5rJunG6WvAEUSentkvqAdIyerWeBnps7B46stFCY5i+moqYVTCYDV9hGoAbIns2h8SA6AfWZB5QyuMhZT5nh2it/Al4iIwhN7AV6DFdUAgGpYQ/muaK9HZYsJ5mTpzybk6zNmtZqAqwrIF7N+DRbkVOWhzu2G22qGvUXZ2InyWTmwy9nC1rV25KjBFlBdBdQqj7EoF7C64a7JA6qsfgNT5+uVcKSaIR1qEywzKlEoZ/ha19qRs6wJQBNK10DO/LWiDMUoFdoh4xVPVrCuAMgrLYLR7/4A58ZcFKMMrW433LmQ21c8Hg9jYgaMaqbQAXtqLdzuCmS0lyN9kd1zbPYcpG9UWsSB4hap7VvXAsX5fc1UEsUmNYMj8jfJio/ubt6TbYTRTVIzdm7189vE2qAyXxAnBAGsZQMX5Cjn2iaP74Kv8Wba2SFrFngyXIVy0OczQJGF0x6aCWLUQNfHGL5Az4+nu6fSVVN0FI6PxTJJaG2hYZwOM6THKpED4Px7vF9P0M2eWYVsNUuozBzqPwuqdlXVTJgT2vhBIiIKJvYCvKx85AEA8pDv+/sIjjUpnizSjGJgba3adTEjK0PNMqWsEb5GlWAm0YQ0uaipthooyEcGlGygsnEbbC0mFN4r/T4qZt9MBdkwAjAmpwGphchOBJBsFrreOFA8w5NpS1kDlFmLpF9c2x2wa+pT1jjk4DAD+QVy+ax6ZH/oRoWfdmhaZoA1V673uz8n6qsc6vF62lc+9hCkJcu/EbfZ4FDOFUZkF5jgaFFbBGXFUiZQbCsaXFwHLzopE1CYFuX6zLoMPE13y5qqILMqytS10TRj1YyPwS5kbwaS8aFWzSykU/RZw6CzQwYIUIK2h7Skgdj90DNhTpiSlK6Zfma+VMfVSWMJfQnYFjpZWLwIAKpglccn3hSke6Y/+iyor/UCJ2PFO8pMmkREpIiZdfDGjlUmuO6PDFS43VLGSKySqWPwDpTBBE8QpnZFLDGjVc6uDS3PGLzWtSZPIKiSM4fqTTpnKUMnZe9SDAZNlszDuTEdxamtQvDne39+JZt9BmJNy3w/Jg0PfV1zhQaOc3MKsjUTgQwZ42NYp+tqGYQmKPGMVTuKTWXaNdMGXuYLngBCmzX0dM/c6ZU5U7Jdjmef8D+RSsD28IyJ0+3jrSfkpQ7CpHksa6HQvVW7tpzpASwM8AuAv7YQ6WbM9LdPTfdMaRkIzU3J1OoylZpJdzSP7VlOgqIFvweIokNf34tRE+CZzWakpYWWEYqYxCI016SheIZ+vJ7UZVHKXAWTkavpVtlej0q1i2YyzKkOVL4ufYX5684YKuPKZtSlFSNFGbeWaEIaqlEsB1LOjenyWLomWAwWNMGIog+lLpgi58Z05KIWzSs139h+9ydn2qrqpS9jtQuskrGsVrtyAp4uq2XafSuSzTC1VKK+HYCSGUxVWiRybUX9w3Xwhp44KYaysLXpiZ1ea9v5nWQlxAlUwqUNEILSBCXSQtxxGD1RWcsNyC/2PQYs8jxj5uBYhezNR3XZJ1/dD9XZNP1lzGSB2iPzUc36dGL3Tz8TnASizf7pXiPqwuEFqPczrs7DV1t485y/dkkDPe/xixrqZDWA9Q1lnIBmmQjN61ZduH3Reu/XNw26+Ph45ObmisVENMi4Dl5/ZFWgrqBanvlRCmaqFxlgMOQCBXmA3eH3F05Ae38DDPk2pKldNI0o+rAOaXJ30JQ1aaj7UO5e2UcZr9QhrypHnpwkAxUHygCv/WegogbS8RgMyLGXoVYXbDWhdI1D303VYEGT3/0BxpW1ajbQUAu1i6Z0jtJYOnVfi4A6f5k/NaA2wGBIQXFanT7IrMr17opKg47r4EUjaWFr+0NDmL1TedYtC0XmC/qxXxLpfEIe/xcJmhktHc8uwKb/ULJPfrof+gxQfAnQHsbHYFcX8tZYtNPvBCeBSROUeLensuB7KIvW+2gLX19yyjg8PwGwNkD2vT6eZzZN7Zp6uHOb96QzyvH7GDdKRDRS9WcdvLje3t7enp4esXzQ2Ww2nD9/fvCzeBQFmmAx5AA1/scL0uDZtWsXkpKSIj4O78/LPsXhrd8i8b4r8OPfRkOgQkQ0PDkqvsTeNR0YN200cg5ME6v7xeVyobGxETk5OWIVEQ2i9vZ2HDlyBJmZIf10pxNVGbzBWgePiIiIiHxjLw6i4S2qAjwaqaSJcZi9IyIiIiLqHwZ4REREREREMYIBHhHp3HXXXREff0dERKTVtMyzzq96m1UeeGK7AJwb0+VJ6CKgwSIv9yQvn6Ucn3b/7eVI1x67MKO4V3l7OdIjdXw0IiQmJiIjw+e0hUFFVYAXmXXwiIiIiKiv+rr2VtgK6jRr79Yhr6UYpYEmrQ3AuLIZ7lf6djGs1wRLiRm1K41wbsxFcZpyjNJM5uo6v202OFLL0Kocv/LY7eVIXwR5XeFWlNmLUd4uzSRem1oMSx/PjygcURPgDck6eETkxW634/Dhw2IxERGNAJFcB8+5MR0Gg8ETFAWUgfwCwN7m2Vab5fPsowkWTeZMCZjUDJ6YWdNs43t/es6NxUCpskyUNmiUjk/drs0OpJm8ljtxvl4JrC2Rl4syoujDZhQlSnXGlWVASd+zlDSydHZ24v333xeLQxI1AR4RRYe+rrlCRETk4UR9lQMA4KiqDyGoaYK1CkhLlkIm58Z05MCTPUtbk4vydikAq1YyfzV5qBYDpsQiNCtZtQNlMKWWoSTL//70nKivAszJYjnk4zOh8F6j59yqlHWA0/X7ain1BJm6bpnJMKMS9V6PS+TN5XL1eUbbqAnwbDYb7Ha7WExEREREg8TlcqG2tlYs7gMjsgukJe1NBdlemS4AmgDJAIMhB9UFdeqM2m0t2gAqB9VwoPJ1J4z3FsIkl1tQAfeHUrbNS3s50vOBWrne3/702mBrSYNJzrh5OFE+KweoUbJxRhR9qHQtdcNdk4biGRY0yY/jsJtRq+nW6emWaYQpzQFbm27nRBEXNQEeuA4eERER0ZDra9ZAZFzZDLfbjeaVPkMwzRi8OuQByMvVj6EzrW3VjNGT96Nk6GryUL3IAINBCqz0mmCZYUOZEPz53F9QTbAYcgFrgOWcks0wwQ5HO5CcatJ03UyGOVXf7ZRoMERVgEdEREREI00GKg6Uwb7I09UxOdUEx5pSOXiTxt1ZGqSulukbnUBWhdQFU78jeVsr8t0V8jg4ib/96SXDnCoFahJlX55xdBInymd5jtX5eiUcqYXIToScYbTKj9MGW4un2ynghMNu8tMFlChyGOARERER0dBKLELtWqB4hhQ4GVc2o66gGjlyl0r72lZUZAHGlbUorEqRulrOKEZajT6Qc24sRjWU+3kmVPG3Pz0jsgugdt1sWpbjc1+AEUXWQlTOkMpS1gBlVjlbmFiE2rV234/TXo9KSIEg0UCK6+3t7e3p6RHLB53NZsOpU6cwd+5csYqIBtmFF14oFvXbn5d9isNbv0XifVfgx7+dLFYTEVGIHBVfYu+aDoybNho5B6aJ1f3icrlQU1ODpUuXilUjRBMssxwo8Te2rx+cG9NRmtzsI7Ak8u2CCy5AXFycWBxU1GTw4uPjkZCQIBYTEY1sby3B6Ilxfm9pm4+K9wjNW0sw+vYNwWe2c25Amo/HVW+PePVxCsq5OSW0x/ZHbpM+n/uQa0DhxBRsCtoAR7Hp9gBt7NyAtGD70W4TZPvGRwI8lo50XIVvyX8G2S8NPxMmTBCLRpAMlBRUItfPMgp91l6O3KpClDC4o0EQNQHe1KlTkZjInDXRUOM6eFHmzm04c6xXvu1EPqZj3R7l717YHxrgbKjxMdjVxz+CdSYgv9Lz+GdeCP9qxfhQK86881gffx0/ik1lVchfVADHs0+gUayOKZOxorgAqNnm8zwbn18Fx6L1WBFqQxofg/1Ya+jbh2qg9ktDIj4+HnfddZdYPKIYVzaHOAFLGBKL0DwAWUGKXVwHL2ROlM/y9KNWb7o1SvpD2r/3oN0+aC9HuriuSns50n3OFhVIEyzifvotlH1q2sLHoqMGZXBzgwWGWeVwRrLtqF+4Dt7w49ycosmq6TMpjY9oM25LpEDhrSUYXVgFOFYhWSnrB+fmFKRt3oBC+XEK3/KV+fMclzaD59ycgtGPbJAyVaFkJZ21qHAUYPELS5CPKmxXskgyryyUmF3SZkRv34BNmu0bH4lD2uYGzbFI99O2of7YGtRzHi1kM6V9edpEbRc0oHDiAlhxEKvnarJg/twpnedqrzZpwPYaIP+eLE+mT/NYPttQbAvdc7QE23Ub+9vnUWy6fQpWOwBroVwm7ldoF+2x+G8XIiLSipl18Pbs2SMWDwjdNLkHymCqKg4SrAxnGajwmv2pn9odCH/FQhPKDmjWjHGL0w1La8qwXzpReJybU5Bc8wDalIxa5U1YPVcK2pybU5D98Xq1ru2Jfci+fQOcd27DmcoCwLQebce2IVPcaR84nn0VN8mZxcqkDUibuwpmNdN3BOtMB7H6fj/dMmtWYV+xcvwFcDy7wG93P2fDq3AsWoJMZGHxIsD6Rhi/Cjk3IK2wypOBLG7G6hr9Jo5nVwG/l+rrF0lB2GrTEc2xKVlDKVCD9hw/XqALZrRt0vbEdFgLl6ARWajUZGIr79Q8uE9ZKH1iOhw1tfq2e2sbrCjA4jvlgOvGnWpWte2J6QHbEJDbQvscVQJWtS0C7XMyVrzjyeR6Z5CldrE9IbfZsZ0wPzslhHahaOFyufDaa6+JxUQ0jERNgBc50tS3vtdF8SExG4WpmkUnGyzeWSZIA2MNyyzyvvVZv6ZlctmsUtjUUmiORXs8cqZqoyerZWnQZBbDyiYG2P8yCwyGdJS3e7Jt6nEqt1nl8gWDNrOpmfbX5zk7UZ5fDAccKM6X7++nzcKjyeDJWb1ytV2V4yQivQaUPAus+72mu+Od21C/yFfGp79dI4MwPYCFyo7lbp2e4GUyFi6a7tlWZFqPUmXbO5cgHwex75CwDSCf70E5awVkProepppVgQMZDSk43Ok5rjufxTpxjnVNl8fMewoAFGCdEsTcuQT52AeHE3BuXgWrdl+YjBW/Xw9ou41q9mXMegAm+b7hMmY9AJPjVexQ7yt1UzU98SwyMRkr3tF3lZUeKzBnw6tw6Np9G+oXKbV92ycgt4tpPerVwC8LlbrAOHLtQkREvsVegNdgRTUAoBrWUAKN9npUtnjWJGlCvpphal1rQnWtJuCqAvLFrF+DBTlVeahzu+G2mmFvUTZ2onyWND2utC87cjSBSnUVUKs8xiJpAU13TR6grp0CAA4Uy1PwGgzSdMAOtS7I/pEPt5C5y3jFkz2rKwDySqW+4E3LUlCcJi82WpOG4hma4NjrnI0ospbBBJM6JXDANlMJ5xIskG0phi3XDbe7FWUojvxgZ6JY4DwIm9zVT9uVLlvOxBgfWo98xyokT4zz6ro5ODxd9ZKfPShWhk/NWsl/G3NhMR1ERYN3MOuLw3EQJpM20JwM042aP30xpfsMbByOg0DNAl27j567SvMZHUHGx7Bu0UGsfl75xbEWFY7psGTps2dqV9IQjsPhOAjcOF2/CLSubSTh7BN+9osk321IREQDI/YCvKx85AEA8pDvp7ufY428foocNGFtrRoIZWRlqBmplDXC11mqGckAkGhCmlzUVFsNFORLa7AkZqMwVdm4DbYWEwrvlb7mjPcWwtRig5IoNBVkwwjAmJwGyItjItksfAkK3Rp1C3oG2X+q/1U0m5YZYM1VukM64bADebnyKjJZ+ciDZpFPH+csCthmKuFcXtGuWuNDapk805QR2QUmOFqUM6PBEB8fLxZR1NJPuqLcpK5zWajUdpGcG+cZhzeglMDO01Wv7Qnv4CE8UtYKqEK2GlRJY8GGbLKVRZ4ujJ5bZLq8ijLv8Uy2ImUiPVkwJQhTu+PuWd/vgGog9klEROHp6/VY7AV4yECF2w23W7/wpZY6Bu+AlIlSgiS1q2KJGa1yNirWODemozjV1+KefRX7bTbS3HXXXSN8iuxhxDgdZr/dGbXkLnfHdvqcmCTi3toGq0kKDLzHaPWRnLXyCmb3rIcpxHMymaZLGSbVUTg+1vwZBpNpOvDxwcHrPn7ns1hnqsL2t/TdVKXJVuR2CaP7ra/j97RN3/YJP/vFoeaQsn9EROSRmJiIW265RSwOSdQEeEOyDl5iEZrFLolQui46UV8V/CspI1fTrbK9HpVqF81kmFMdqHxdHuX2eiUcSjYsIsLfv3NjOnJRK0z9a4QpDZ5ulQ1WVCMNpjAnZQmnzULSUon6dgDyPgNlJIlGLmkCDv0kFVL2rPAtH+vNiV0cB5JDc1H/1pJ+d9GUxoxpxvkpjI9hnWayFZNpum5ZgcbnPV0LjVkPwFSzwDNr41tPYHUfP7KU7q/ZmrGOXu0dUdI4RmvhAli1Y+cAQBfkN6AwhO6UyvGXqG2xRO3aKwl/n/DZLg0oLFTGC9JwwR/5iIa3qAnwhmwdvKwK1BVUI8dgQZPcHbB6kQEGQy5QkAfYHYG/rNX7G2DItyFN7aJpRNGHdUiTu4OmrElDXUTXPwl3/00oXePQd0+VJ2bJeKUVZfYcqWyRHWUH/Gc/AaW7pjLJSh/aLESV+QYYDCkoRhlqI70eDfm1Z88eroM3jBgfakX9Im23RWlmx8o7AeNDO7EOyhi8OIwu3Id1e+QuhHcukcfnSWPzIhqcyBO9qMdUlo62ygJAN1FIOKSslWlRrs/POKn7ojTZivGhnVhn8jz29nt2Il/Z0PgY7JUFsBZ6jmvdIt9jz4LLQuWe9cCzU9QxeMk1D6AtpIxXFhbLM3SmbT4qL90QvOus8aH1yAeEdpAmMVHPaeIq3LRnJ/IRbGyidPw2oS3UuoD7VIJNXwujS7OEmtV2kbrpRiyTSwOO6+ARRYf29vY+r4MX19vb29vT0yOWD4lz586JRTQSNVhgWATUBehmSwNn165dSEpKwtSpU8Wqfnn/55/i0B++xeTsKzDvJV7sRZ+j2PRILRa+EEqAEjsaH5GWQRjqAKTxkSXACwMzfo9iT+v/+QL/U/I3jE8Zg4X7ksTqfjt//jx6e3vFYiIaRO3t7Thy5AgyM8P/ZoiaDN5groNHRINvzDWjAADu49HxgxIJ3noCFSbfGbJY4ZWldG7A6hrv2SgHnXMDVmMJgzsKmfI5esk1F4pV/cZ18IiGv6gJ8IhUWRUBJ8mh4enylDEAgK/3u8UqigZ3bhvyLNZA8+qyOvdVWPa0qrNRDhnjY7Br1pwjCuYru/Q5Ol7+XCUi0mKAR0SDIuHWsQCAs9+dx9+ausRqokGgzCaq3KIguCMKk/v49zi+5xQAYMJPpM/VYau9HOnqvAAGpPdzzdumZX3cR4SPI6gGi/wY8kzkPtYIdm5M95ozQdS0THOf9nKkB1tjmEYMBnhE5KWv664EMvYHF2Hi7dJ+2/7jK7GaiIhC0PbalwCAi8dfiEnZ48Tq4aPBAsOMShSqa+S2orAqpR/BlbSub9gifhzBNMFSYkbtSiOcG3NRnFYnP24d8qpypMdtL0fumjTUyWsH1xVUI2dWuX4SrAYLcqo0fycWoTa1GBZx3iMa1vp6PcYAj4h0BnIdvOQHrwAAfPr2CRx9/VuxmoiIAjhxqBv2TZ8DAEw/vxJxUX4Vp2ShfAVLTbXVMK2tRZE6gboRRdZWlN2r2WaZj6xagwWGWRZYlMyXHPg4N+aiuAVwrMlFeTukQErNgKXLZfIxLbPAIu8z2HGI2+uzbuJ+yz11frJpzo3FQKk067lxZTPcrygDUjKQXyD/N7EIzZqhKhm5efL/FE2wLALKhLWHjSvLgBIhEKRhKybWwZswYcLgr4NHRIPqhpxxuP7uSwEAex/vQNdfu8VNiIjIl15gz68/AQCMve4izHz8anGLiIiPj4/QslWetXEdVfVC0NEEaxWQliz0kU40IiNRKnNuTEcOPNmtNDVwA9Bih9kqZ71ailHaABhX1qIsFXKw5kT5rBygRs7K1aTJSzvJqoB8txvNK9uCHgeg3d6IpmUpnqybuJZyVSWgHFdVjo9smhP1VYDZ59K+TbBWmVB4r3e/8abaapgKstVJsJqW5QA1FcgWtgOSYYayjjCNZFEV4EXmA4WI+mOg18H74YaJuPjyC3Gm6yzethzGNx9z0hUiokC+d53Df//sMDo/cAEAZm+ciFGGgbuE62vWQE9aJxeALjiRJMOsrhvsW1uLA6iS1+g15KAaDlS+roRoaTAlIsB+2mBrgbxGrwGGRdVAiybwSTVDirH83V+gbi91A83LlXNrWfnIgx0OZb8FZXImUMrG2dvEXFobbC3KsWspAWmzJpMo18iBbrOyHnCDBTmoQ4XPeZmMMKU5YGsTy2k46s86eAP36dAHLpf0wUVEQ2eg34eXJV6MeVt/AMQBp46ewX/9gwOOSmlMCRER6f3trRP4r7sd+PTtEwCAH66/FpOyLxM3i6hIfQ8YVzbDLWe+hBqY0nwEQO3lSNdMKGJa2ypn8KSb934CMaFMHVfnhtvtHTyFehwDqwkWQy5gdXsFbU3LDMhFraYbp5TNUwLflDVyEOynOygNf319L0ZNgGez2bB//36xmIhi0HV3XoqMNyfDcN1FON/Ti73FHai/vRUtWzrR1faduDkR0Yhy+rMeHLJ+haa8v+LtwsM40S51Z//Ri9ch5ZdXiZtHlMvlQm1trVgccRm5eZrxcpCyWPnFwNoSZABITjXBsaZUDrKk8XTeXR79SYY51YHiMjnwabD4nYky2HHoSQFhda2yXyuq1WwigCqrerw+u34iGeZUTcYPTbAYrMj3EXw2LTPAmusd1Ga84glaW9eagII6TQDohMNu8tMFlEaSuN7e3t6enqFfeNhms+HUqVOYO3euWEVEg2jXrl1ISkrC1KlTxaqI6/7yLP5f8XEc3qqfcOXC0XEYfcVFiIvTFRMRxbyeU+fw/alzurJr58fj5mcn4Kq/u0RXPhBcLhdqamqwdOlSsSryGixS90mZaW2rLqBpWmZQZ4pU6xosMCwC6twVyIAT5bNSYCuVsl/S9iaUHWhGUWITLIYcSHtXyqQujylVhWj9UJroBAh8HN7bS49Z3OJrv4CpxQEHIAReHs6N6chFrTyez3N+CtPaVjQnl+qOBwCQWqY/ZuXYWso8j9NejvR8oFbYjoan9vZ2HDlyBJmZmWJVUAzwiEhnMAM8xVf/7zsc+sM36Hj9JL7rPCtWEw2az2Z9iNMJnQCAaf/1D2I10aC5cEwcfpB1GRKXXo4fZEmTUw2GQQ3wYoh3IOhPEyyzHCgJul34nBvTUZrc7NXVk4YnBnhEFDF79uxBUlLSgC2VEEzXwTM4efgMer49h95esZZoYP3ls//Gh5//CddfOgW5yf8kVhMNuIviL0C88WJcdfPAZ+t8YYDXN6EHePosXsQwexdz2tvbcfr0adx0001iVVAM8IjIy4UXXigWEY0Ib7zxBnbt2oVp06bhl7/8pVhNFPMY4BFFjwsuuABxfRivEjWTrHAdPCIiIqKhFbl18IhoqERVgDfwHyhOlM+S10TR3iI2vay0/9BneQqgvRzp4nGGOIOUc2N6COfUBIshXZo1qsECwyzNAqA0ou3atWtA18EjIqLoFpl18IioP9rb29HUFOx63reoCfDQj7UewqVbV+VAGUxVxZrpcaOJfg2X1rUmVJcED8TaWhxikbd2B+zK/7Mq4GafbSIiIhrE6zEiGhhRE+BFbh08aa0Uf+udeEnMRmGqA7Y2+e8Gi8+MmZQVs8j71mf9mpbJZbNKYVNLoTkW7fHIWb6NngydpUGTWQyQeTPeWwhTiw3Kofrcf4NFmnK3Kkc+diFrOascTnmNFwccKM4vh1OXwdNuL2f45P0aZllgUeqY8SMiIoo5g7UOHhENnKgJ8CKmwSqveVINawjdGdFej8oWz6KQTcjXZ8yUxSwBoArIF7N+DRbkVOWhzu2G22qGvUXZ2InyWTmwy9nC1rV25GiCouoqoFZ5jEW5gNUNd02eZpFMb87XK+FINUM6VD/7z6pAXYG0/kpFFoD2NpisShawDnktlahvN6LIWgYTTCiz6jN3TctSUJxWJ21fk4biGZpAucUOs1XZTzFKQ2lfIiIiIiIaNLEX4GXlIw8AkId8P+uAONakeDJaM4qBtbUokof/ZWRlqFm8lDVCV0cluEo0IU0uaqqtBgrykQElG6hs3AZbiwmF90rhk5h9MxVkwwjAmJwGpBYiOxFAshkm5e4AAAeKZ3iybylroAnIAu9flZiBjEQlK6cs+OmPEw47kJcrL5iZlY882OFQu6+mwZQIAMkwq+dJRERERETRIvYCPGSgwu2G210hBV0+qGPwDkhZLCVIUrsnlpjRKmfXhpZnDF7rWpMnEAxHgwUGQwpspXLmTawnEsTHxyM+Pl4sJoopX3zxBV555RWvm80mdbQ/duyYV90rr7yC5uZmcVdEREQDoq8rDMRggBeGxCI0i90QAeSVFsEIJ+qrgk9WkpGr6VbZXo9KtYtmMsypDlS+Lo9s03WvDJ9xZTPq0oqRoo7RC2P/qWUoydJ2X/XHCFMaPN1SG6yoVrN2NFLMnTt3yBY5Jxos11xzDS699FLY7Xbd7YsvvgDkcUhiXVdXF9LT08VdERERRVxiYiLMZrNYHJKoCfAGZ5kEH7IqUFdQjRyDBU0wIrvAhOpFBhgMuUBBHmB3BJ5MRL2/AYZ8G9LUrotGFH1YhzS5O2jKmjTU9XOmyoxX6pBXlSNPxOJ//8mpJs8kK1n5yGspRorBAEOtGWXKhDKJJqQpk6zoHqMVZfYcqVvoIjvKDvjPhBIRDWfz588XiwK6/fbbxSKimBMfH4+0NGUgChENR3G9vb29PT09YvmQOHfunFhERINs165dSEpKwtSpU8UqophTXV2NP//5z2KxlxtuuAGrVq0Si4li0vnz59Hb2ysWE9Egam9vx5EjR5CZmSlWBRU1GTyXy4XOzk6xmIiIaMCEmsVj9o5GkuPHj4tFRDSMRE2Ad/jwYbS3R+Vq40REFKOuueYa3HrrrWKxzg033MCxdzRiuFwu7Nq1SywmomEkagI8IiKioRAsi8fsHVFkOTeme5ar0t406wX3Z3uikY4BHhERjWiBsnjM3hFFnnFls7RclbsVZalAXo20JJTbz2R04W5PNNIxwCMinYSEBK6DRyOOvywes3dEfadk3tI3hpFna7B4MnTq0lD+6bJ76vZNsBjSYVmm1KWjXB4FpNtelwFsgkXNDirLZ0nrI1uWWXT7IBoM8fHxXAePiCIjLS2N6+DRiOMri8fsHVF/eNYTdlTVh9aVsr0c6YvsKDsgZ+vsOYGDwwYLUqoK0apk9+zyElEAAAfsqbVwu92oK3CguKwJQBNK18CzfxSjtAFyIJcD+9pWuN1utK61I0cT/FUjH253M4qGYDUvGrkSEhK4Dh4RRY7L5RKLiGKemMVj9o5GositgyetLQwApoLs0LpSttngSC1EdiLU+zta2sStVM42O6Cs9WtIQXELUF3ryfqlJUuPmpwqHQeQgfwCB4pnGGCYVY/sD92oyAKANthaTCi8V9reeG8hTC02KI9sSk2W/0c0uPp6PRZVAV5f05BEFDm7du3iFNk0Il1zzTW4/vrrAQBjxoxh9o5GrMgEeJ6xc80rQwrv+qagTh6fJ99eyRC30Ml4xZO9Swm3+yjRIGpvb8f7778vFockahY6d7lcOHnyJIM8oiHGhc4H3ume8+j45nu4e86DSwlHl7feegt2mw1XXXUV/sliEatpiI0eFYeJ4y7ClWMvFKsogo4dOzZI12NOlM9Kga1UzqS1lyN9RiUKDzSjKFGqqyxo1QSIwvYNFhgW2VHmtX0bLIYcoEbazrkxHSktZXC/AlgMVuS7K5ABoGmZAcWprWheCd1jOTemS10/P8xGvdcxEA2O/ix0HjUBns1mw6lTpzB37lyxiogGEQO8gdH6eTeqPuxCY+spHPisW6wmojAYr7wYf2+Kx09vHo95SWPFauoHl8uFmpoaLF26VKwaAELABiVoq5b+X1AnZOS8t3duTEfKGmmsn2f7Jj8BXoZ+/6llaFVn4pTuI9Xkoc5dgQz58Rjg0VBggEdEEcMAL7KOnfgeJW904rUPvhWriCgC7jDF46msBMyZbBCrqA8GN8AjIn8Y4BFRxDDAi5x6+0ksr/oU37jPAQBuuHI07k27HHOnXoqp14zBpaPZzYwoHN3fn8cn35zBh0ddaDjQheaO02pd2cIJePSOq3XbU/gY4BFFBwZ4RBQxdrsdEydO5FIJ/bT1g2+x7D8+BQBcOuZCrFlwHX72I158EkXSrpYurGs8hoOffwcA+NWdV+PZe/nZ1R8M8IiiQ2dnJzo7O3HTTTeJVUFFzSyag0q7iKbBoFkzxT/nxvSQFtz0qcHiWTSzwaIurKndZ7/2TxRBXAev//7b4VKDu/QbxqJp5XQGd0QD4K7U8fjvR1Ow6OYrAQD//taXKH/nK3EzIqJhJybWwZs6deqgrIPn3JgOwyKgTp1Stw5YFFqQFxFZFXDLA3rbWuRBwcL/iYZaX9ddIeDsuV488p+fAQBuvM6AbcuSYLxytLgZEUVIXBzwwmIjctOvAAD8uu5zfNQhZfQofPHx8bjlllvEYiIaAn29HouaAC8+Pj5CU/I2wWIweDJmOk7UVzmQVyNNjyvJQMWBVuQnK+ugKPf3tw/42caJ8lkGWJZZYDCko7xdvI9MyeA1WJBTBaAqB5anNf+XA82mZZ4Mo7pGS4MFhlkWWGYZmO2jAcN18PpnbeMXaP9S6va+4ac3YNwlHGdHNBg25RmRdM0YAMCzDZ1iNYVhMH5wJ6LA+rMOXtQEeMePH0dnZwQ+kBus8hS31bCKWbn2elS2mGBOFsoTjchINMpBWg7sa1vhdrvRutaOHLk7pUfgbaqRD7e7GUXBPhuzKlBXIE3pW/GU5v/ydL45UBburEPamlxPwNhih9kafCFPIhp8Z8/34sXdXwMAHrljAmZcx1n9iAbLqAvj8KvMiQCAhpZT+MDpFjehELhcLrS3+/uVmoiGg6gK8CLygZKVjzwAQB7ylTVVFIkmpAlFem2wtZhQeK+01onx3kKYWmxoC2MbU6oYPYavrcUBVOXIGbwcVMOByteVEDINpmDBIxENiT/uO4ET30kzZt5/6zViNRENsH+YeTmmX3sJAKCm+YRYTSHqa9aAiKJD1AR4kZOBCrcbbre2G6YiGeZUB2z6iE038UnENFj61Y3SJGcIlRsX2CSKfu+2SVO2zzddhmsuvUisJqJBcPeN4wEA77T1bewKEdFwF4MBXiBGZBeYUL1IO7auCZZF1cgrLYJRDgCVbJnz9Uo4Us3Q5+RC2QZAshmmKiuaADjb7ICvbfxITjXBsaZUPkZpvN+gTQJDRH22/zNpYoebJ8WLVUQ0SG42Su+/j491o+dcr1hNRBTzRliABxhXNkvj5tRJUnKAGjcqsgDAiKIP65C2JgUGgwEpa9JQJ894qdlDCNsASCxCrfw4KWsccgCpl5xqUidW0f7fuLIZdQXV8jFK4/2k4yMaeImJiVwmoY+OnfgeAPCDKy4Wq4hokEzSvP+OnzirqyMiGi7i4+P7POERFzonIi8XXsiZH/vi2sdb8c3pc3jpH6cg23y5WE1Eg+DTb3vww7UHAAAtTyVj6tX8wSUcXOicKHpccMEFiIuLE4uDipoM3mCtg0dEgblcrj6vu0JERMMb18Ejih59XbYqagK8yK2DR0T9sWfPnj5/oBAR0fDHH9yJhl57ezvsdrtYHJKoCfAitg4eEREREfUJ18EjGv6iKsDjBwoRERHR0BqMdfCalhlgMGhnNZfK0jdGdNGqIJwonyXPVD4QS2YRDZGoCfCIiCgKHdmAeZfF4eE3xYrB8faDcZg4ZwM6xArZ2w/GYeJl/m5L8LZ4B78a8LDmPDvKU/r4uOE8pl5HecqQtPNQPS4RUI3iQQ3oAsiqgNvXrOhEwxADPCIiGt5S1mPvyV4c87ptwx3itpHk43H3PrMPSy9LwZYj4sZBHNmApU8eFEsH3lA9Lo0Izo3pMBgCZOUKylBYlYtyPx24lPvr9tFggWGWBZZZBhiWNUnbLCtH+Sx5+SulzCBkCBss6r4MvtYXVjN40vrD2m3Vx24vR7pars8+EkUTBnhEpMN18Ij6blJRK7bmH8TTBf6zf0QjgxP1VQ4AgKOq3k/XRxOKStNQXOYjVGqwSGsNu91wu6X1h9WgrMUOs9UN9ysZ0t9VlYDVDfeBMpiqcpCLWrjddchDNazyfZqQD7fbDbfbjda1JlTX+nhMAEAGKuTtpH3koWylEUATLDMqUXhA2YcdOcv87YOo//qzDh4DPCLSSUxMRHx8vFhMFJjclVPtquije6NXt8Zg28zZgENCfd/ou19KjmLLnDhMfFD8Gb//7nh8PZJaV2Gd9vHE9tEez5tLMNG8CocA1OVpj0k+Ru39hOMV23Re+VFdvXLuPtvc7+MSRYIR2QUmAICpINt/18esCtSh2CuL52yzAwX5kEK4DOQXAPY2JUxMg0l73ZtaiOxEAIkmpMGEwnuNAJJhTvVskpGVoWbxUtZIgWdgTbAYrMh3V0jH0O6AHQ4Uz5AyeClrHECVlVk8GjAJCQmYOnWqWBySqAnwpk6dipkzZ4rFRDTIuA4ehU0OFPDMEbmr4hE8hVWYowkm3n4wDkv3a7s07kRO6yrM0QQVbz8Yh6XWAmxVujsufhVPW9Xq4WPKdNwI4OO/ysHWkQ2YZ16FG6u1XTmnoy5P7sp59zYcs61HEoCc6l4cezlLDu6m4OmZOz1dQG3rkWRdoAZxXm1qWw88OUUTyDbg4csWoC7fs4+tM1dhjjJO0Ofj0kgXHx+Pu+66SyzuE+PKZrjdbjSv9BveAQAyigtRmV+OUMKuvpEmUzGUmNEqZ/ACc6J8VjHMB+TgTpUnZxSVm1hPFFl9XbYqagK8+Ph4Zg2IogDXwaPwHMWW0iogfyd2F02WyyZjeZU2i9WAWiuQU/IYJqn3y0JuPoD9B6Ug8MgGPG0Fcqo94+YmFe3EUynqHYaR6ZihOe6ON17FoZT1WH23p2zSPQ8gCQdxoM1TpnOkFttbp+OpxzVB15RcLE4BDrUcBHAUh/YDmDnd06ZTHsPuk714UX6cjvJVqEMBtmoCtzte3okcVOFpr0wfkcegd9NPLEJtQSWKqzxFxuQ0TYasCdYqIC05cKAYTF5pEYyarqO+OVE+KxewNqNImyVMNCFNMymMc2M6Z92kAcV18IiIaIgcxIFWICl1ur5YDkbq6hoAZOFFNfDwdBlcqs3OtTXjEAqQqwmCgMlICqVjR+sqzBG6P07sy0QnA2RSUSuO7ZWC247yFOn45K6Rfk15DLtPtmL5FG33zil4ulXZYDKyFk8HrAv8zNx5FA3bDwL5S4SJZqTAWgoSibwN1Tp4xpVlyNMWZFVI49wMBhgMObCvbUVFn5PMUnfR6kUGGAy5QEEeYHf4Ds4aSlHc4umKqUzcAmSg4kAZsCZF7qKZhjrOuklRKqoCvKH4QCEiov67cZqSvfPNM1ZsAerk2Se35nvqO/66T7u5yitw9MXHbJbHlOBoSEhBr0oz/m7Okwel7pBy10j/NOPvzKtwKH+n1PVVkxmcVNSKY9UFAKqw1NcYO0AOAPXBry6wJvJhMNbBy3hFM0mKVIIKoTun0sVT180zq0LXNdK4slmzvEEGKtxK5s2Iog/dalDo2VczilYqSyJotlGWSciq0HTBlG/KcSYWoZndM2kYiJoAj4iIhi91vJkgKXW6pvulHHzJ2SytSdNuEkokwzLTdOQgPsZ0LL5HCnrffm4VDmmCUKULZUBvPoGnW6fjKZvcZv7Gx929zRPUVhdI2UztZCma8Xe6m7/9ERHRsMcAj4iI+kEab+YViB2pxfZWObPns/ulNC5PlZyOJFShVpjp8tB+7d/9ow9ChSxbBEkB3QPImgL1HJIW5+qC2o43Xg3YRbPjr/sAdR8yuU39unsb9j4zXR7XKHdvVcY4qqTMoPdsm0REFCtGUIAnz6AkLF6pW8CyX9tHGXkqYN1CnuoinoNIfUypPb0WFqWok5aWNvgD7GkYm4zlJQWAZnZH4Ci2FEhZq9V3e4I37cQebz+4AHUA0NosBTpTHsNT+UBdnmc8WUf5As2Ys/6Qg9DttZpZPeXHj7CO8hQstU7HU1VKllIKtA49+YRnnJxmcXF/mc9J024CdEstyG0KJWjztcxDA9Y9eVANJu942XumUqlNC/CUOiEOERFFo4SEBKSlpYnFIRlBAZ7Uz9rtlhfC1Ex163v63nC3j07VJYMc0Pml7wtP0SshIYEz2pKXujxxEpM4z+Qe8nT7eHKKXC5P7690xZzyGHZXF+CQWh+HpdgpZZuwD4fkyVDueLkXW/M948nmbH8AT2nG6fXdZCzfKwc78r6fTj2iGwPYJz4md5nz5E3YKoz/u+PlI3gqRTNOzvwqFtt2IkfbBVUNcOVxdHI2ztPuU7B9sXzMrc04hMlYvvcIntqvHWMnLYngmc00Cy+e3IkczTg86fg8M5V6Pa5STkREQyo+Pr7PP7jH9fb29vb09Ijlg87lcuHcuXMRuLBsgsWQg2rkoc7fANj2cqTPsKFMrXeifFYKilsAwISyA8LUuF7bK48hbN9ggaEEyEM1qlsApJahVR7427TMgBxl+t+COnXArnNjurrgpmltqxw8NsFiKAYKgOqqNN/n0V6O9Hyg1t8MTg0WGBYBZWvtqESttN8Gi7QGjHKfBgsMi6Sz8ByT+Nj5sBqKYV6bhuI11fL5lsE2Qzp/9Zjby5E+o1hdw0YtVx8zG/WzUmArdaOkzXPOEuW58tOuNKg6Oztx2WWXReC9OPJc+3grvjl9Di/94xRkmy8Xq4loEHz6bQ9+uPYAAKDlqWRMvfpicRMK4tixY0hISBCLiWgQuVwuuN1uXHvttWJVUFGTwYvYOngNVjlAqIY1xO6ATctSUJxWJ2XratJQPMMir7viixPls3KAGjm7V5OG4nxNlqzFDrPVDbe7DnktxShtkIKx4iolA1iHvKpilLdLAVbKmjS1PG1NiqYLowP21Np+z9JkWlmGtDWl3ufTXo70RXaUHXDD7W5FmT1H0/VUfGwHilvy4Xa7UVfgQPEMK/LlhUIdVfVwAnC2mVCrzCxVk6eW+6KdFat1rQmmtSXICNauNGjsdjvXwSMiGsH6mjUgosjp7OyMjXXwIrJMQla+vI5KHvJD6g7ohMMO5OXKYVRWPvJgh8PvobTB1gJ5LRWDlAFrqUS9un0aTIkAkAxzqlyUmI3C1GppLZdlUKfwdbbZgYJ8OYjKQH4BYG/zhDQ+F/SUx9YZZhTD0VKMFIMBBkOggDQDFTVQF+ZUtdngSC1EtjyVcHaBCY4Wz4q74mMr7ZOcalKP2Zjs6RdszMqAsb0c6UqbhMC5MR25SnYxaLsSERHRQHO5XH2+qCSi6BBVAV5kFjqX1lHpb+YrMJOc+VJuwboSKuP56pBXleM9+Uk4lPVZDpTBlFqG1lDONasEhVW5KPfEbxHXtMwAwwwbyuQMXlANFqS0lAnjGcNtVyIiIoo0BnhEw1vUBHhDxwhTGlBdK+fAGqyoVrNwviTDnOpAcZmyvSVIBk3uDjmrHE5koMLdijI5s2dMTgOqrPJ9m2Ct8s6cRYYRRdZCVK7RZNaSzTCpGTIn6qscMKUma+4TPqmrJdBUGySD12CBoTZfWOC0D+1KREREREQ6DPAAZLwijUGTugbaUXYgUEbMiKIPPZm44NsDSCxCbUGl3J1SGu9XkSVl41rX2qWum4Yc2Ne2hj7LZGIRmv1NsOJLYhHKCvR/N9ekoXiG55j6MztoRm4eHGtSYDAYYE0tg6nFBt8JQyfKS6oBpf0MBhgM6Shv70O7EhERERGRTtTMommz2XDq1CnMnTtXrCKiQcRZNPvuB/9yEF+cOov/XTAZuelXiNVENAicX5/B3LKPAQCO3yRj8pWcRTMcLpcLNTU1WLp0qVhFRIMoJmbRJKLowHXw+u7qS0cBAI6f/F6sIqJBcvyE5/13Vbz0niQiGm76sw5e1AR4ZrMZM2fOFIuJaJB1dnbC5XKJxRSClAmjAQD7Pz0tVhHRILH/TXr/Ga+8GJeOjprLnGEjPj4eubm5YjERDTKXy9XnZaui6pOPWQOiocd18Prux1PHAgDePngS5873itVENAj+++AJAMBP5PcjhS+i12Pt5Uhf1gTnxnTN2HvNbVY5/rwxHYZl3tOqOf2Uazk3psMwKxLr5jpRPqsfs5xHq/ZypPdx0jpP+ztRPqtv+6C+4zp4RERRIDttHADg9JlzeO0vX4rVRDTA/p/ThfcPnwIALDRL70cKT2TXwXOiPN+GslcyYFzZLC+BJM0mnlcjL4n0YRFuXdkszKxNEdNmg0MsC5FRfV6MKLKaURwk2KboEVUBXmTWwSMiGhoTLhsFy4+kyVU2/fdxdLnPipsQ0QB6/q3PAQA3/eASLLjxUrGaQhSxAK+hFJUF0hJKgegydQ0WdYbt0hbNRu3lSNdk/tI3eufsmpYZ/CyxJGXntFlD5d7SfQwwzCqFTXsX9Tikm+/Mnp/96pZ6EjKDmvOzLNNmyAywbPSco6VBs29NYKXLhKrlTbAo+5P3Xd4uly+qBlCNHM3jeB2vth00+9U9L4lFKEOxvF+KdlET4BERxYLHM67GRRfG4ctT3+PXNR1iNRENkA27juG9tpMAgOKMa8RqGgJNtdVhru8rBSRSdq8WZrsn9+RsM6HWLWf9avLgqKrXdcts25iOHNTB7faxxFJ7G0xW+b7uOuQp6wA3WJBTlYc6txtuqxl2TUDZhHx5ezda15o86yVr+duvX/7PDwCqq4Ba5fEW5QJW6VzVNZMbLEipKkSrkgm152gCTwfsqbVwu92oK1DWFc5ARU0egDzUvZLh/3jby1GstIO7DnlVvgO55FSg8nXvwJqiDwM8IqIIMl55MTYumggA+K/932JlNb8MiQbab985jg27pOzdL35yJbLTLhM3oUHnhMNugjlZLA+gwYpq5CE/CwCMyC4wqVXGrAwYlSzeomrtvYCWYuSsSZOCGF8SM5CRqGSvcqDcu6m2GijIlwLCxGwUpnrukpGVoWbbUtb46eToZ79+BTg/ADAVZMMIwJicBqQWIjsRQLIZylbONjvQUuxZV7kFusBTCaaTU/X7Vfk73sRsFKZWS+syLwMq3M0oStTfFfJxOVp8r3JM0YUBHhHppKWlYerUqWIxheGfb70Cv77ragBA9YdfY+GLbfjoE86sSRRpx7p68Muqoyhr+AwAkD3zMmz6X9IPLBRbmpYZYJhhQ5mcwdNJLUPdWrvcDdGHBgsMhhTYSuUMlVjvRQ6CSsxolTNqPoW93wgoqFMzi263O7yxi36P14iiD5XsXU6ALqk0mBISEnDLLbeIxSFhgEdEOgkJCWIR9cEz90zAb/5Basv/OerCPb914Odbj+DNj7twsvucuDkRhejs+V7saT+Ff6nrwKy1B/DH5m8AAEtnX47//OcbxM1pyBhhSnPAFk7CJysfeaiGtQEAnKiv0mfOTGul8XxNtd65suSVtUKXRUFqGUqylCyaJCNX0/2xvR6V2jF/APJKi2D0cRw6PvYrZd3scLQL+w1yfsEYk9MAtfukFIT6GosYkK/jbS9H+qxyOJGBCnkSHF+cbXaYUsNJyVJ/xMfH93lG27je3t7enp4esXxInDhxos8nQkSR0d7ejssuu6zPi2uSXmPrKTz5+nHs/6xbVz5h3EWIH32hroyIAjvz/Xn87Vv9NcuVYy/Eb/5hAh68VZrgiPrv5MmTGDs2AstMNFhgqM0XskxOlM+SskgVWXLJxnSktJRJ2zVY5C6YJuQVANUQy4G8tWWwr7GhzF2B5I3p0ri0D4tgbLDAsAio8xqH1wSL0iWxoAxl9mL18ZuWGZBTBSA1D3moBuRy58Z0uWumCWVr01BcZZYeI6T9SudY3OK9X9/nl4zyWSmoLGhF80qjtE2J/Hjt5UifIZ1rhtJWSpfRgjq5baXjQI3m2JX2bC9H+oxiOArq4H4Ffo7X9351+4ET5bNyAavv7psUeS6XC1988QWSkpLEqqCiKsA7d46/ahMNtV27diEpKYndNCPsP/7nW2z7ny6808ZF5KPZLHyIK/E1AKARmWI1RRHz9Zcg7+/G4Rc/vhKXXMwOSZF0/vx59PZGYi1PJ8pnlcL0oRhwkRLoqkFdtGsvR3qZCc3hdAmlfmlvb8eRI0eQmRn+d1HUBHiHDx/G+fPnkZjInwWIhhIDvIF14rtzaP7bd+j45nucPnNerKYh9uXHb+Mrx//F2GsmY9JPCsVqGmKjR8Vh4viLMOO6Mbh+/EViNUWAy+XCvn37MHfuXLGqb3xm8UYqTcYPUndJ76xgNGL2bijERIBns9lw6tSpyH2gEFGfMMCjkeyNN97Arl27MG3aNPzyl78Uq4linsvlQk1NDZYuXSpWEdEg6k+Axz4NREREREREMWKEBXjK2h/Czd+0umGT9u93BqdwKGu9CLewZ0vyqQkWQ7rPRSyJiIiIiGj4GmEBnsS0ttWzfsiBMpjUKWejjQllBzRrnbjdERqIm+F3EUsiroNHRERENLS4Dp5OEywGAwwGi7SuSTCJ2ShM1azT0mDRZcyUbJxzYzoMyyzyvvVZv6ZlctmsUtjUUmiORXs8cpZvoydDZ2nQZBZDyibK+1hmgUHJxPk5bn0mUMnaeTJ4gc7Ls890WJalh3hsNNxxeQQiIiKiodWfdfCiJsAzm819jlJ11IUblYUkg2ivR2WLCWZ53cYm5KvZsta1JlTXaoKaKiBfzPo1WJBTlYc6txtuqxl2dZFMJ8pn5cAuZwtb19qRM6scSgfL6iqgVnmMRbmA1Q13jWbBTQCAA8UzPEGbLnADUI18uOVMnL/jbiorBtRjAIrLfARpvs4LTbAsqkZejRtudy3M9vAW46ThyeVyYdeuXWIxERGNEPHx8Sgs5AyyREPNbrejs7NTLA5J1AR4ABAXFycWhS8rH3kAgDzkywtoihxrUjxB04xiYG2t2l0xI0teTNNg8Cz4qEg1IxkAEk1Ik4uaaquBgnxpfZfEbBSmKhu3wdZiQuG9UpdK472FMLXYoCQKTQXZMAIwJqcBqYXITgSQbIZJubu0lVcXTWVRUAAwpcpRaYDjzsjNk883HfX3NvueptjHeUmBstKGRmQX6I+MYlN7e1T2VSYiokEUkesxIuozl8uFI0eO9LlXVVQFeJ2dndi6dStcrv4sBJyBCrcbbrf/RTXVMXgHymCCJwhTJ2EpMaNVzoQNDwGOO6vCk72bYYBBk0Uk0urs7MT+/ftx6623ilVEMaejowOvvfaa1+3AgQMAgOPHj3vVvfbaa/jwww/FXRHFpLfeegt2u10sJqJBsGfPnn7NhxBVAd6ECRNgNpvVD5XOzs5+BntBJBahuSYNxTP04/XySotghBP1VcG7JWbkarpVttejUu2imQxzqgOVr0vhlPP1SjiUTNkA8XXcTcukbp3Glc1SF9BQZeUjT+3mGlpb0PCkdMvctWsXbr311j739yYaTiZNmoRRo0bhww8/1N0+//xzAMDJkyd91s2aNUvcFVFMuvXWW3HkyBHs2bNn4K/HiAiQu2Vu3boVl156Kcxms1gdsqhZ6Fzr8OHDOHz4MFwuF1wuF372s58B8gLMx48fFzcPWB8fH4/c3FwAQG3t71D3qxV4/0dr8Zu7rlLrDTuXIKcqD7/adi/G167Cmj9+DuBaLLrvB6j5f6k46NgMbLwJ0//3jVhbcieuwsd49ec1mPTMb7B05gScr85GThWAiT/ED/E/QM7v8MBMAPgY1T//Ld4BANyHX/7uLtyIr/BW6Rr1GBK/qMbfW+/CR+89gP+35Rf4zZMdWPS7B3DjF2/hN0/WQLrU0Ji4CGtLbsI+eR91v7oDaWlp+PDpGfhJ2WHPcf9lEtaW3InsW87hmRsfksclXotFz/wGd17jOf5/7lqHjMYH0VT9D3C+/zu1/M5rAOx/FT9/8X8AmLDgnh7s/HIBfme5UXc4d911FyZMmAC73e7zl77c3FzEx8cHrX///fd9dg9Unttg9cGe+2D1tbW1Xl9eEyZMwF133RVS/WuvvaarA4DExER1XGmgepfLhdraWrEaaWlpSEtLC1p//Phxn+PmbrnlFiQmJgatb29vR2dnJ8xmM4M7GlGOHz+OtWvXisV+/exnP2OARyOKy+WCzWbD8ePH4XK5dN8b77//vrh50Ppg1wzB6oNdMwSrD3TNEKw+2DVDsPpg1wzB6oNdMwSrD3bNEKw+nGuKQM99sPpgz32w+mDPfbD6YM99sPpgz32weiVz19eumYqoDPC0jh8/rp6k2KCKgayP18xgM5T1SrArClavnFv/6p1YZ07Gazl/xts//4GP+mD3D17v69wxxPWhPjdDXR+sbYPVE41kVVVV+Mtf/iIWe7n++uuxevVqsZhoRAr2vTLQ9b6+ExHl9aF+pw90vb+2DVYf6nMz1PW+zh1DXB/qcxNJUR/g0VBpROHobFiVP1PXoa15BSKxCh8RUbQ4HmIWj9k7IiIaLhjgERHRiBYsi8fsHRERDSdRNckKERHRYLv99tvFIp1g9URERNGEAR4REY1oEyZMwI9+9COxGJCzd+yaSUREwwkDPCIiGvH8Zen8lRMREUUrBnhERDTi+criMXtHRETDEQM8IiIiH9k68W8iIqLhgAEeERGRnMW77rrrAACjR49m9o6IiIYlLpNARFHnbGcnzn37LdDbK1YRDaidDQ2w7duHq666Cj//+c/FaqIBd8Gll+Ki668Xi4mIQsYAj4iG3vnz+KayEiffeAPuPXuk4I6IaISKGz0ahh/+EJfefTcuLyjAqGuvFTchIvKLAR4RDamvfvtbfPlv/4azX3whVhEREYCrVq7EhKefRtzFF4tVREReGOAR0ZA429mJT5ctw6ldu9Syy++9F+Nuuw2XpKZi1FVXIS4uTncfIqJYd/bECXT/9a849f77+GbHDpw7eRIAMHraNFz3u99h7Ny54l2IiHQY4BHRoOtxOuHMzsYZhwMAcNU//iOuLSrCxfIEF0REBPT29OD45s049m//BgCIu/BC3FBbi0szM8VNiYhUDPCIaHCdO4fDP/4xvvvoIwDA5P/9v3FFbq64FRERyU5/9BGOPvwwznR04AKDAYm7d2PMzJniZkREAJdJIKLBdmzlSjW4S/z97xncEREFMfbmmzF12zZclJCA8243PnvkEXETIiIVAzwiGjTuvXvx9e9+BwC4bs0ajGc3IyKikIxJTMQNGzYAANx/+Qu+fuklcRMiIoABHhENpq83bwYAGGbMwISHHxariYgogHG3346rFi8GAHz94otiNRERwACPiAbL+VOn0FVdDQC4+p/+SawmIqIQXHP//QCAM4cOwfXuu2I1EREDPCIaHNoLkcvvuUdXR0REobkkNRWGGTMAAK533hGriYgY4BHR4Ojevx8AYEhLw4Xx8WI1ERGFaOzNNwOaz1UiIi0GeEQ0KL4/dgwAMPoHPxCriIgoDKMnTQIAfP/ZZ2IVEREDPCIaHL3yeptxo0eLVUREFIYL5M/R3jNnxCoiIgZ4REREREREsYIBHhERERERUYxggEdERERERBQjGOARERERERHFCAZ4RETDVMMjExE30XNL2dyh38C5BSmaep+32x9Dtlimuz2MBv1eVbrHv30LjupqO7DhdnFf4m0eNvzHw8L938YSr+20N+V4lO3mYYMzlPtNRNwjb0uHFrBdlP2FQnxM8b5ivf6me77UYxL3IXhLbK8Q2/nPgc5Zvt2+BX/aPE/6v9xWR5W/fRyXWuf13PtrY+99EBFR5DHAIyIahhoemYgFNfqyg8/O8Q7y+q0OC3wGeW9jm/bxHdtRGxMX74ewau5ELHlLLBe9jSUTl6JKV3YIq+aGHsQMzPM1UA5h1fNygBxEwyMTETf3aRwUK+S2HT7nTEQ0PDHAIyIabpxbsEoOrgoqj6H32DEceSIJAHDw2XWeYMy4HK3HpPreY3ux3iQVT39ir1x2DL3vZEFZdl7Zl+e2FQUAgDpsEwOet2ql4MaUgwITABzCqw3aC/dJeOwdz76U44PpKRxR978bjyVo7iLwPp5j6D32IrLEDQW+73cMvS/cIWyZhPV7tNt42qiq0FdQ63F089NycJeDnbr7+g6ExGPauUgqP1jT4J39CkuI7XxrKK+F5Qi4SmXN0qCB79HN89QfHnT7Vl9LwMFnl4YcBBMRUfgY4BERDVtJSJev5yc/9JR8Af0xDkbs4jkJ6XIgsO+QPuvS8EYdAGD6otV4dpEcXPY7WBlqk/DYOwGCWl9MMzAdkO5bnCOVfXwoaDtk3SNv6zjgI9MVvarKfHTHVHWgtuYQIAd3rQ9Ji3FL7sC2PU9hOpKwfs9uPGbUVBERUUQxwCMiGm6MSbgJULu8SeOl7sA2JVsTqYtnZwNedUj/vSlJe7GudM9MwgNZkzA5a7EU5MREN807sETOrlW94Z2JU0xOulH6j+NpTJkod+m880U1EzZZvINACZA9AWKUMyXJz/HTWOCvi6X6esnBel1wJzMuR2skX59EROQTAzwiomHnDmyrlDNAkLrOSZNYBO5WGExVoTAphjKOyvQUnr1Ts6HSPRM3YroRgDELD/jsptk/XsejBFJB+LpfOBN8TDfJadFA7nxR7WYJ7WMqE7kIxGNSujEWFAcPBqPDYqz31Q1Y69DwykYSEcUqBnhERMPRnS/qxlJJ6rAgjEAmFAWV3hkpNfu0KFceD+fpnjj8u2mGLuuFY+jd85Q+A1ez1Peskl6k8X/btIFzlJv+0Fb59VaHBX4CWV/E2V5DDdSJiKhvGOAREQ1bmgk21Iye70k+QiFO2AIfY+90s2eqmcOJiCuUg74IdtMUJybpPRZaQOTrfuF0XT3okMaRhUQzkY2a0XM8jSeEAMb7mEI/nuihGWdY8zSekLvvqpKU7qaRHAdKREThYoBHRDTM+Fx/7M4XdYFZf0x+aLdnlsdn5+izLWr3TH8i201z8HXg4MfS/wruEWfdVHjWntNO+Z/1gphRjUFq19RDqJInVFH56aqb9YIS1I6A9iEiigIM8IiIhhntBB+eTNHbeOLZMDJPQWS94JnWXjtzoqd75lavLJnPpRqGmYZH5mCVPFHIEr/ZwkmYLj8FunN9a51839iW9ajQLVWl6arrY42/o5uXjoj2ISIaagzwiIiGmztXa9ZrU8Y1KYtuJ2H9o/4yT+HQTOSizpzo6Z7pK7ulzqYZ6hIDA0Sc0ES9eY2Nk2ch9TX5SWXg9fY8QU4dFojdVMVJacLifUzSLbJjK/vFuBw7/WWLNZPPHHx2ju4cpqg/QAQKnomIqL8Y4BERDTvS2DvtLI6SHOyM5Ngu3cX6Umz4D6V7pmf9PR21i17gJQaim7RwedCxfsblaNUs3q1atNVrUppY5Fl30ZvPyWcAzcLygYNnIiLqn7je3t7enp4esZyIKKI+XbYM327diivuuw+Tf/tbsZqIiEL0ZUUFOtaswehp0zDtwAGxmohGOGbwiIiIiIiIYgQDPCIiIiIiohjBAI+IiIiIiChGMMAjIiIiIiKKEQzwiIiIiIiIYgQDPCIiIiIiohjBAI+IiOj/3969h0dV3esDfydcRBBQvMGgkYkMJCGhgCipHBslB5uLiQ2FCgnBPrVaSqqhJWJPG6IOOVYltIktknp+tkpIgAOHlGASWoyVttiglFATkuBgBiIZUUEEBJTb/P7Yl9l7zSWTZCbJTN7P88zTZK81e/beM7Hz8l1rbSIiohDBgEdERERERBQiGPCIiIiIiIhCBAMeERERERFRiGDAIyIiIiIiChEMeERERERERCGCAY+IyJOd2TDMKoFN3O4j28vx3Xq+6nAJoo3xWH1YbPCB9rnd2U93HC5BtDEb1fKv1U8YYTAqD+d2SS0y1TYjol9u89AmPG9nNgxP1Gq3wPZyvPD8jlU/YXTZT6/qxHvWnWPXPrc7++mO6ic07/fhEkR7/BzI77farr8+tpfjPTyvDatnideyFpniZ4mIKMgx4BERBYhpyS443loMk9jQWeMWo8m+C8vGiQ2d5K/9dEobVv9gAx55Zw2S5S/fKVvSUWW3w2G3ozWvESlqCG7D6llZqM+rg8Nuh8NeiqkFccjcKe3J9rIF5XNL4bDbUTW3AilqCGnD6l8BVS8lOF8WgGlJKR7ZkuVTOAoFyS/Z4RCuQVf4az+dsjMbKShF05JwKdzdbcHU16XPiPg5wOESRD/ciMJ35PbXY5B7txLSapFXAKntnXygQPP+73wBr84tFT7/CSh7HZrPEhFR8GPAIyJyZ2c2DA9XAC0WRMj/wi9VhErUKlLmTtdKg7aaoK3g2V6Oh+GJEqye5aUq4YlLFS4bqzVVCrFKqK2QRf+6wf1+1N89HI+uQiKfq8Lb80Q7X0BuTL76pbq5xQrMnYNkudmUvABRLQ1oVvq2pKNwSbjcmoCCPDPKt0tfvptbrIiKNAOA9L+NVvnaZuHVuU+p+3QKx7L/ikHuD7xUUXXnko0yXWOb7v3Sn2stMo3xWP2y9jp5qATtzHZt01Y1vXyGOkOswmk/q97fQ/15ixU8bUVMPDZvbd4rtVptWP2rRhT+TAqVtuoNaI7MR8FspV3/Oaj+tQXNc52fKcx+CoWRFSjbCeCwFfWIQdQ4AOPMmAor9lkhvV8PQ/PZ0pj9FAobs/TXh4goiDHgERG5M3sNHK+nA5H5aLVL1ScAaC7YgGly5aDMLFYa6lAYafUcKLZYsO+/lKpDOpq11YVOqUBuS75a3chosSBFDh7VTxiR0piPVvl4HmmskMKTi1pkeqqS7MyG4WGoVTbHO/mof1j58u7leS7asPpXFchIdVaDoiLNwJat6pd96ct8LKIA2KyNgPyzwmSOUftHRZqlgKgExRgzTKhFXkGM+y/uADB7DjJaNmCru+ssVopeB8q3KI1tWD0rDrkxUsVQqjaahffMitwtseq1LozUVhU1Zs9BBuQAIrNVb0Dz3DlIFo+ho89QJ2g/q615ZpQ/rAmUHs9bsDMbEQUxzs+CplpmezkeEVsWyOfv2ub8HIqVWsHOF5CLBZgjBzZ3lW/lfQfa0Nwof45U4YiKgRQAx5kxFY1oPqyEPTOmmaXqb32eu38EAIBwzJnrDJBERMGOAY+IqDMinV9EpSGPdpSplQbpi6JH2qrE7DnIUKsLnWVWqx1AAjLnKl+Aa1G2Bcj4L+XLcTiW/SFfF5gUtpctKBeqJGV2O8pmy6HsdWeoxbjFqMoDcn/t7guw8jxxOwBYsa9F+oKtMC3ZBcfrQIpc2Yloydd/mY8x64e0mp2Bz7SkFIWNWTAYjdIwz5cSOvjiDgBmTIu04tVq1yqjS6Vo9hpUzVVaw7HsLf1QRVPyApdrqb3Wc+Y6q4p60nvkDBBt2LrFKgXfzn6GOkNT5ZKOXQo+3s9bS/osRGmv7+w1cNjXIFkZCvkHzXs3ew2q5lYg101F111oU9isja7vu9bhEuRu0X7mgalmfaB3Br4ElL0eg9y7jTDcbQHySrFsXAf/CCD8QwIRUbBjwCMi6jbn4h8RBV1KbP6hqVioxpkxVfOrwlkBE1mxrwUof1g7vE57XvJwOaXdXcVKoR0uJ6t+wgjDr5Sqlx2tkZYOhu9pyaHLbteEDOmLu3Y4oL6aKFV3nBUgJ3fXQF8Zkqj7vtvioRraseTUdGeAOFyNV1vSkakLxT33GfL1vJXPghimAOW9tUpBSvM5SZErgaYl+chosSDCzdBNkXborQu52igFNbHRg9lr1Kpr05Jw5z8CaIelitVEc6wagImIgh0DHhFRlylfyp0Lg7TmefiiGmQy1CGDmodczTIt2SUPyUsHtkgVNbfz8Kzy3DqVWGGUq3KRmqqPWAFz2YdT9RNZwOtrkHy4BLnKwi2vpzuHIso8hocOKMFOHWr4jvtqqE80wzTV4ZlAkH+GzM6FTjSPpiXhamVXHXJ6t9FDkJeGXLqlhrs6eZ9O9Vb9581dgAekfaRsWYCqJeGo/rW0L4e9DoVwDmsGPP9DCBFRMGLAIyLqqp1bUR4pffkXv4D2Ct2iErLDVtRrflVoFynRM2NapOsXaLfkSklrnhnNW6pd96UZXukLkzkGUBZckdmsjbpFWVSHS5DbKA8ztDao8/jcvaanL//uroGzby3KtsgBxsPQws5RhmmWOIdnonc+Q97PW8vLZ8HdZ80tpepa6jIPUWmPihG3yfNA5XmC+uviriIrhUTtXE9F9a8tmPpfi2GS+0jVSDev6eHvhIgoGDHgERF1hzaQ7MwO+PA67+Thk7/S3HbgB+6HFSpD6PLUL9zSipHRLwPL/ktcAEZpa1MrTs5hkNJ8sqi5ya4hSLvgBeAMOerxSStgqitnyqshOudw1SKvQBOGNJxf3OVQp7wPLhU/d4tySFyuwc5sdYihRBtgpMVl3F1LX0nDNC3IFeYl9vRnqOPzVoTLn4UXnJU3dSVWZaiutirn/Gy43ANy51aUQxyWKtEungPIr/FwBTJedz+3M/ln+YjaYtHd/iDXZcir8I8AcqiTwqqbqqG1Ac3CcGIiomDFgEdE5MnsOfI8Ig9ziORFJZQFQwy/ikXr6+mAp1Ube4BpyS5UxShzn+Kwb66nYYUJKHsnH/XqXDtpxcimJeHA7DVozYNmflUcXp2rDJNLQNnr6Zo5eprnuZAWONFWeZJfsmuOz4iIAqBQvkeeVO2RVuWU9i0NW3T5kr8zGynqF3dpEZhC5X14uFGzP6gLvTyS7O74hGvwq1gUqouNiOdpwbR3SpEB9wu2+GT2HGRAWKinVz5D3s5bMHuNtAKmcnx3WzD1deleiqYlu/THbswC5FBmWlKKQjjfZ9f3xclkjtFVFKt/LQVpcR6oGhjHLUaTspCKx31L/7ih/iOAHAxREOf2M+uxUkxEFIQMDofDceHCBXE7EZFfHf3hD3GytBSjvvtdmH77W7GZQtXObCm0+GWYYxfszIZh+5yev3E3dYJ0S4p9/+W+Yhd4bVg9Kwv4gxRcg8Fnf/wj2n75S1w1YQImNGjudUlExAoeEREF1OynUIhAVqO80d9Am/oqaShor92HbucLyI3R3DidiCjIMeAREfUm7dLtbh/uVh4MJuFY9ocFeFW+AXZPsr2chVfndmJ5/b5sZ7abz4ab4YvBavYaVCHL/WqsAVWLzIeBKlZ4iSiEcIgmEfUIDtEkIvIPDtEkIm9YwSMiIiIiIgoRDHhEREREREQhggGPiHqEYfBgAIDjq6/EJiIi6oQr8n9HDVddJTYRETHgEVHPGDR2LADg648+EpuIiKgTlP+OKv9dJSLSYsAjoh4xZPJkAMC599/H5TNnxGYiIvLR2b17AQBDvvENsYmIiAGPiHrGNffdp/58srJS10ZERL4519iIc42NAIBrZs0Sm4mIGPCIqGeEXXMNrl2wAADw6Wuvic1EROSDT199FQBw1cSJuObee8VmIiIGPCLqOdcvWQIAOH/gAI7xXnhERJ1y6s03cWLTJgDA9dnZYjMREcCAR0Q9aehdd+H6H/8YAND+q1/hi+pqsQsREbnx1Qcf4MiyZQCAYf/xH7j+Rz8SuxARAQAMDofDceHCBXE7EVHAfHjPPTj37rsAgHFFRbj+e98TuxARkezLd9+FLTsbF9rbETZ8OG7ftQtDJk0SuxERAazgEVFvCC8vx5CYGADA4aVLceRnP8PXR46I3YiI+rUr58/DXliIg9/5Di60t8Nw1VW4beNGhjsi8ooVPCLqFZeOH8fRRx/FGc0wzWuTkzHy3ntx9aRJGHj99TCE8d+giKgfcThw6fRpfPXBBzizezc+/9OfcOXcOQDAkOhojC0pwdAZM8RnERHpMOARUa86sXYtPnvxRVy028UmIiIKC8ONy5ZhtMUC8B+9iMgHDHhE1CecXL8ep7dvx7l33sGlTz8Vm4kCxg7gXwA+BvBlaiquGTMGn37yCS5v24ZpAIwA7hCfRBRAYcOGYehdd2F4UhKuzczEwBtuELsQEXnEgEdEfc7lzz/H5ZMnAYdDbCLqliPt7fjHe+9J/7t3L/4uL/ajSE1NxZgxY2C32/HGG2+o228bOxYAcM+dd+I/7rwT4WPH4p4779Q8k8g/wq65BgNHjxY3ExH5jAGPiIhC0pEjR7Br1y4cOXIEf//737Fr1y6xiwtPAc+d2267DQAQHx+Pe+65B+PGjcO3vvUtsRsREVGPYsAjIqKg15Uw505nAp47DH1ERNTbGPCIiCio+CvMudPdgOcOQx8REfUkBjwiIuqzAhnm3AlEwHOHoY+IiAKFAY+IiPqEng5z7vRUwHOHoY+IiPyBAY+IiHpcXwhz7vRmwHOHoY+IiDqLAY+IiAKqr4Y5d/pawHOHoY+IiLxhwCMiIr8JpjDnTjAEPHcY+oiISMGAR0REXRLsYc6dYA147jD0ERH1Twx4RETUoVAMc+6EUsBzh6GPiCj0MeAREZFOfwlz7oR6wHOHoY+IKLQw4BER9WP9Ocy50x8DnjsMfUREwYsBj4ion2CY6xgDnmcMfUREwYEBj4h6xOeffy5uogA6evQo9uzZg/b2drz33nvYs2eP2IXcuPfee9WAxwDcsbFjxwIAZsyYgTvvvBO33HILZsyYIXajABo1apS4iYj6OQY8IuoR69evZ8ggIvKj66+/Hs8884y4mYj6uTBxAxEREREREQUnVvCIqEcoFTwOffPd2LFjMWPGDBiNRsyYMYND33rAF198AQC49tprxSbys6NHjwIA9uzZg/feew/t7e2s8vtozJgxuPfee1nBIyK3GPCIqEcoAe+DDz7A22+/LTb3e7fddhvi4+MRHh6O+Ph4Ll5B/dKRI0cAALt27cLf//53dWEg0pswYQIDHhF5xIBHRH7V2NiIlpYWcTNaWlrwySef4IsvvkB7e7vYjPb2dhw+fFjcHJIY5oh8159D39ChQzF16lRxM6699lqMHTsWQ4YMcVvZHz58OL797W+Lm4mon2DAIyK/+93vfoeDBw+Kmz0K5SXpGeaI/K8/hb64uDhMnjxZ3OzRsGHDsHLlSgwaNEhsIqJ+ggGPiPyuqakJa9euFTd7tGPHDrS1tYmbgw7DHFHvCdXQN3ToUGRmZsJgMIhNbj3wwAOs3hH1cwx4RBQQa9ascTtUUxSs1TuGOaK+L1RCn69VPFbviAgMeEQUKL5W8YKhescwRxQ6gjH0+VrFY/WOiMCAR0SB1NFcvL5YvWOYI+p/giH0dVTFY/WOiBQMeEQUMB1V8Xq7escwR0Se9LXQ11EVj9U7IlIw4BFRQHmai9fT1TuGOSLqrt4OfZ6qeKzeEZEWAx4RBZSnKl4gq3cMc0TUU3oy9Hmq4rF6R0RaDHhEFHBiFc+f1TuGOSLqawIZ+sQqHqt3RCRiwCOigBOreF2t3jHMEVGw8lfoGzp0KBYuXKj+npqaivvvv1/Xh4j6NwY8IuoReXl5OHXqFM6dO4f169eLzS4Y5ogo1HU19CUlJeHWW2+FwWDA6tWrWb0jIh0GPAo5Jy+cxFeXvhI3Uy/74x//iA8//BAfH/sYtbW1urZbxt6CuG/GYezYsfjmN7+JuBlxunYKvCEDh+C6wdeJm6m/u/glDBfPiFspgI4ePQoA+GfdP7Fnzx60H23HP+v+qesTGRmJ6XdMx9VXX41f/vKXujbqA8IGwTHkBnErUY9hwKOgd/TsUWyybcJf2v+Cfcf34fTF02IXIvLBiEEjMO2GaZhtnI2HIh7CrcNuFbtQqLv8FcI+LEPY0RoYPnsXhvOfiD2IyBdhg+EYNRlXxtyHK+O+C8f1U8UeRAHDgEdB6/OvP8ez9c+ipKVEbCIiP/hR5I+QPyUfN/BfovuFAe8/jwENqwH+IxmR310JT8PlKXlwjPqG2ETkdwx4FJSqPqrCkneW4Nj5YwCA64ZchwdMD2DGmBkwjTBh2KBh4lOIyItzl87BdsqGPcf24I3WN/D5V58DAG66+ia8/M2XkRqeKj6FQoThiwMYuHsxDJ+969x42/3AzXcCI0zA4BHa7kTUkSsXgbMfA8cbgPa3gdPSXEsAuHxXIS5HP67rTuRvDHgUdNYdWodH//EoAGDwgMH4+Z0/x48m/wgG6O8LRERd90rDK3j+3efx1WVpPuvvZ/4e3zd/X+xGQc7w6T8xqHYO8LUU6BGZCUQ9DAwZJXYloq468meg4ffAGWn16MuxT+LyHQViLyK/YcCjoFJztAbfefM7AIApN07BS/e9hPHXjhe7EZEffHjqQ+T8NQf7Pt0HANiasBUpt6aI3ShIGb48jIFV8TCcPwYMHgncvRIYc7fYjYj84coFoM4CHNkBALg8/Tlcjlkm9iLyCwY8ChpnLp7BlD9NwdGzR/GNG7+BjSkbMXLwSLEbEfnRmQtnML96Puo/rYdxqBH7v7Off3chYuDONIS1/xkYeDUwqwS4fpLYhYj8re5pwFYFALiY9BYcN88UexB1W5i4gaivWrl/JY6ePYowQxh+E/8bfskk6gHDBw9HUXwRBoYNhP2cHZb9FrELBaGwQ6VSuAOAGfkMd0Q9Je5Z4LqJAIAB9c+KrUR+wYBHQeHE1yfw0oGXAADLpy9H5KhIsQsRBYj5OjOWT18OAPhd0+/w6Vefil0oyAxo/p30Q/hs6UFEPWdyNgAg7NguhLXvFFuJuo0Bj4LCZttmOODAkIFD8GistMAKEfWcR2MfVVen3WzbLDZTEDF8tgeGE/ulXybOF5uJKNCMdwM3SvfFC7NtEluJuo0Bj4LCm/Y3AQDJ45Jx9cCrxWYiCrCrBlyFZFMyoPl7pOAUZq+VfhgxDriB9+Qi6hW3JgAADKzgUQAw4FFQ2C//a/Odo+8Um4ioh9x5s/T3p/w9UnAyfP5v6YcbJotNRNRTbpwCADCcPwbD2aNiK1G3MOBRUPjo7EcAgHEjxolNRNRDbhtxGwDAfs6Oy47LYjMFCfXL5DW3iE1E1FOGa/7+zrVrW4i6jQGP+jzlRssAMGTgEF0bEfUc7fBo7d8lBRnlvRtwldhCRD1lgPP7jOHy17omou5iwCMiIiIiIgoRDHhEREREREQhggGPiIiIiIgoRDDgERERERERhQgGPCIiIiIiohDBgEdERERERBQiGPCIgkIbSmKNMBo8PbJRKz6lI4dKEG+IR8khscFV7SIjjIs6/QodalsV7+ZcOvtatcj28Ty6o21VfCePi4h6nx2r46bD8NhusUHSuh7RI+ZhdavYoKHt00H/6se8vJbObmRq9mMrngdD3HrYxG7dVZMHw4jpro9OvZZ0DTNrxO1+VpPXyeMiIk8Y8IiCQjgWN9hhd0iPuhfNQFap+rvdsQYJ4lM6Mn4xdjl2YfF4scFVwjo77Os6/Qq+0Z2HHXZHHfLrsximiMgPjFj2dCKwsQbVYhOA6ueL0Dx/KZZFiC0eRCxE0+nNvvf3kSlnMxx1C2ESG/wheilaT++FQ/OomlyECIYpopDFgEcUKg6VID62BCWLtFUw18pf/Ko2Z3+l8nWoBPGGbJRoK2qxJZB76ip4tYuMiF9VgmzNPrO3Ow9D2pezsliyKl63r46FY3FDKdJLs5z71e3TCKNasatFtiELFbDCYnYeR61yDdxUBPVVQ7HyV6s7L+V5baviEbfcCpRmdfJciKjXJSUhAzuQW2wXGnajbCOQkT5Trsxpq1weqnRiBU/3vDyU6TrL1UPNfqOL7XL1LgflsCF3ilQZc6ng6Spv+mOpfmw6oovXI1Oz385W15JfqUQhipCiXhNPx2rH6rg05DYB5Q8p28Tjk85dDdDCtVSf4+51lHOuyYPhoR1AUxEitPsioi5hwCMKJY0WbIitkyph68woiY2DZaqzQlb3ohnW5VkehjNWwNKQL/ctRXqjBVlKGBRYl29ArNW5z4o0ZYhoLbLNFuBF+Rissdiw3Co+3QcJmJMFNLa0SeHObEFMpabCF2OFJb0EbUjAGkcp0mFGvtWONalSuMuqz0edUhGsTAeUsLg9G3HLY1CqtsXAYtYcuyEL0L5OfRbiV7Uh/Mldzqppw2KEi4dLRH3YTBSsNKF5w1v6ilVNDcqRiMyJ6xE9pQhTNykVrkoURtuQm9FBhatVeN4moHyj0igHo8nFatWsdaUJzStysLp1JspOFyMDJhTu34uyJP1upbBzEIX7lf1ORO4UfchrXrEN0+T21pUmlD/U2VBkxJwFJjQfsHVwrEYsq6tEYTSQsWkvmnKMrsd3uhgZ2IGUx3ZL4VV3LYsxdUWaHECl13l1QaW+kvjYbiCpAI5NiXK1sQDJ4uESUacw4BGFFDMWpCvxQx7WqRlaGZ6+AGb1N5EZ+flKXylgWRs8hLOsfHVop7TPRlgPAdi+FRUx+Sh9Uj6G8YuRn6V7ps/MsWbp9ccvxi6HFN4k4Uhe5PksEtbZ9SEsdQ7S9V2cUteow1vbVllQkVWqe53FFfnA8hc6P7+RiPoUU+qDiGrahq1qSLJj9bM7ELVyCZIjFqLptDZoSeGnI7bt29AcvRQFyvOSClA1X2k1YlndXjheman2N6U+iCj1N0+U4yp2DgNNKkDVfBtyn9fM7dMMK5X2exDN7iqOXpgmTATet8HW2WNNKoBDN0x1JjLV8xbNRJlybWteRi6WoirHqLYmv1KMjI1F7qulRNRlDHhE/YA6ZNFsgYfI5hdtLY3AVLOuwmWO9RzGOsc5fDLOh6qgcyhmFiqUjalPIT+mAlnyfrRDS60N8hBM7RDNAF8vIuohEQtRqA1JrW/h1SYTHkl1hg1p6KQ0dDBihdfaHQBI1a/JJt28uahJrsGw+jF5OOKUIjSLjS5s2NcETJ2gPS73+w2ETh2rZihmilq5lKql5Q/J+9EsOGP74KA8BFM7tDMH5WoPIvIXBjyiEKYEO3XIojXfSwWvb7E2WOVwqAS7LDTKQz/rXvR8Fkqwcw7FLNVU8JyL1ZRmARVpwjw8lwVf7F1bwIaI+pzkdOdiK7bt2zSLqyjBLgf1K6Xhg60rux+olLCU8r68yMn+pZ6rYr3A9sFBNaB26liVYKcZiumsXMoLxpzeKw253Jijn4fnZsEXfTWQiPyBAY8oZNVia6k0N62n5o2FR8YA9VbdIiQeh3l6VYutpUBMZLg67LPOYccuZeinR22oXmdFemXHwSxhnXM+34aKNilMCsdORCEkaQkKo3egrGY38lbYpMVVIM/Fk4NHk2b4YEeiJpnkIY5O0pw2yAu4SHPsOrc6pgnTooH6D/QLwjj36y92bN1gkyuDnTtWKRxL8/Vc5g9qJRU45/NteAuYMBFoaum4MkhE3caARxTSrGhQ/99UWgClK3HLZ6lz9IuzHCqBpVTs1JE2lMRm6efDNTY4j3t7dodDNBtblJgm70tp2J6tv2fgoWpsaJTmLYY/me+ysExbp1cAJaK+S5pbV/5QDsq1c+cAffCoyfNpiKYpZykymoqQp6xgWZOnGaoIabjlQeVnafGRjsONdFsHaYETeVNNHlI2mlD4c+ccue6qfixNmA/XyWPVBFtb8TzNeUvVUOeqnnKQXDALJjlgS4uxyGry9CtwEpFfMOARhawErKlMl4chGmE0WBBrLUU6pIpVYCRgjTUfWB4nz2FrwIIXzS7z8nTEeW+GOGxYVOdcHCZ1DUqznPPmjL+IRV1lOtC4AdWHIC8II90mIX4V5IVR5Nc3xKHhuTrkxwAVm2td92W2IKZSuRegcOwGI+LWLUCdXP0MT18Ac2lW124qT0R9gilnKTIAKXAoG5MKUDV/B1KUeWHPRqJ1UyKgW5TFnZko278U9cp8s2cjUagOVZyJsk2JzrloI4owbX8xMmDDq9vt8sIk0m0S9LcRkCtfmyYid4r83IcOonB/N4Yxusx7m44UFGuqdR0dqxKMpTl1ppxiFMK5z4gDS6UhrRtrUO2yL2l1TqkyasSyumJkyMM2pXMDqpRVM5OSkNFUhAhPt6ggIp8ZHA6H48KFC+J2oj7jq8tfYWTpSABARVoFZoyeIXahPqxtVTziGvIDd6N06jF7P9mLtG1pAIDPF36OYQOHiV0oCAzadgcMJxuBqT8FIjPFZiLqCVcuAZviAACXEnfiyuhviT2IuowVPCLyH3EIJGrxwnIr0ucx3BERERH1BAY8IvIfcQikfONw573liIiIiCiQGPCIyK+k1SmdD4Y7IiIiop7DgEdERERERBQiGPCIiIiIiIhCBAMeERERERFRiGDAI+prDpUg3hCPkkNiQ9/XtioeRoMR2dvFliCxPdsvNzbnDdKJXNmK58EQt169QXZfV/2Y/t5x+kdP36tNuoG4YcT0vnsNW9cj2ut1sWN1nHAdtTc9x25ken1+91Q/Jr4eUehiwCMiP6nFC8uB9CwzKn7Rv8NN+JO7YJdvkE5EwSn5lb1wnJYfmxKB6KVoVX4/3Y0bj3dFTQ3KlddXb1Dex0QsRJPH62LH6rg0vLqg0nlNT1ei8P2cvhtYiYIYAx5RH1C7SLmtgBHxlgahtQ0lsc52bWWobVU8jItKdO3xqzTR6lAJ4tVbFmSjRKwsbc927lfuo9zDrnaREfGrSpCtafdamdu+FRUxC/BU/gKYGzegWluBdFOVrF1khHGR5o552msgv670erXINsSjZLvmXGJL0IZazbHp961UEl3b5H2t0p63fM7bs2FMqwAaLYhTr4Nw7YXrqz1m7bVjBY8I+qrTiHnIO+CtXV9dqX5sOqKL1+vaM2s0T63Jcz4vbj1WC9UZl+qb2iZXiYo1zx+Rh2r1mZ3Quh7Rymurr+FapYoutstP6Oi13V8PW/E8GB7aATQVIUK9DsLraCtTbo5Lup67Nc+RKmXa6+Q8Tm/XTz4etU1TcfNWwWt9C682mfBIqlGz0Yhl5UsR1bQNW1t3I3NEDsphQ+4U53vt+Tg6upbK8TjbyrRt4vXTnr+b60cUbBjwiHpZ7SIjsurzUeeww+6ow4L6CljV1jaUxMZhw6I69bYDpVMtiNMEI5Ra0PCcfFuCynRYl2fJgaYW2WYL8KL8XGssNix37lkKNI3Ityq3NChFOiqQpdm3dfkGxMrtdS+aUZGmvYm5Xu3mCpgXJSN8fDIWxFixocL3eNO2Kh5Zpekolc8xv8GCCl0PKyy/gNxeivRGC+IMFvXYSrOssFjkSLYqHnHrFsjX0w57ZQwsZu1xW2FZF6te7/wY+ZxT18BemQ7E5KPOsQYJ8rW3TC1Vr33di2b1+ratite8b3bUvdiILIY6Ipn0hb1+pVyx2f8g6jdq6zRSOzbpqznakNG8Yhum7ZfaW1eaUP6Q/AW+dT2iH9qBDOW5T7cgd6Nzz9WPTUfK+5pq26ZEYGOOJiDakLshUm6vRGH0DqR09Ut8UxFenSSf4ysmrI5LQ+7kYrVK1brShOYVOZrQ4+m17Vgdp7lemuthytmsqyCWJUnVMOfryJUw7TnojmsmAKB5RRFQLh1X1XwpSOUqfTYlonnFy6ju6PrV5CFixURUqW0TkTvFh4AcYcJU2JD7vHCd1arfTJSdLkYGTCjcvxdlSR0cB+DlWsqfkSlFmKp8RjYB5epnRLx+bt4nN9ePKJgw4BH1qlpsLQXSn1OG84VjcUU+zErz9hdgQT5Kn3QO9ktYV4r0UouzKhWTj6eUe82lzkE6rGhoVipqmueOX4z8LGUv0k3J7Y5dWDxe2ZCAOdp2AMjKV9vD0xfAjEZY3c0NPFQCS6kZC9LDpXN4Lh3W5S94DIN6baheZ0V65RokyFsS8jXXQOa8RvJxao4tYV46UG9FmzxMNL9CMzxSvvm6RVN5017v5EVm+bmicCxusMO+Tjkq5Rq4x2GZRBo1NShHIgpz5IpNxEJUrXQOLLQVF6F8fjHKkpQtUjUHcsgAAMxfqg73M6U+iCgcRHMrYNu+Dc3a5yYtQWG08iR5aKV2GGNSEjKczQCAjKeVdiPmLDAB79u6OExQW5UyYlmdPhBIx63n22tL+2pSrp9WzcvIbUpElfo6ciVsY5EmSIrVMv31TE5PBLTvT1ISMuTr68v1UyUVwHG6AMnidhczUbZ/KaI25riv/rnhy3F4upa27dvQHL0UBepnpABV85Vn+fI+ubl+REGEAY+oNx2yohFmxGr/n2W8GTHyj20tjfKQQe1QwCyhuuVeW0sjMNWsCxzmWDfxRDOMM6tUbPRNW8UGWGMWIFkJi6lzkI4KbPU2pFNlRUOj52vgiftzsaIRVljM+mGVXT0vhToU02xRq6vhT+bLlUSjyxBRov7O9sFBIDpS96XZNGGi+nPzARug+7I/HYYpRWjW9Pek+YANUZO0s9CMiJqs+VXmHEqYg3KxMcDUoYU+nhNgxLKnE9G8Ik16npd5ae6urVQh6yRxHwK31y9piVQpk98z3bDZjkQsRJO2GicPx/R2rvB0HB1oPmADJpt0cxX1nxlJ598nouDAgEfU18U4hwE6H9rKWxcpwc5sQUylMtRR7OSLWryw3CoEUSmE9s5iK2bNsFPnY5emCuorJdipQzGt2spiAtaowzyVUOl5CCsRCeY7h8g5H75Ug7xTAoFzKGGxS+UnUJTAoA4t3L/Ua4jSSSqQrsH+pYiS59v1xvwv79dPrn6d3ouq+UD5Qx1X4txSzvV0MTKaipDnJih6P47u6db7RBQEGPCIetN4M2KUIZWKQ1Y0yj+GR8YAjQ2aOXm+C4+McRl6aG3QzO6r2ABrljS/bI0yxLMrtm9FBZzz59RHZTogLrbilhmxMZ6vQae4u55dVoutpXJY9Dr0Uh7KKc9h9K1qSRTaTBMmAk0tuqqI7YOD6s9RkzwNTexY1CSTVKFR2dH8vvPnrRts8vy87ofFztmNso3SHLJurXSpVLo2JQIba1zmt7m7tmi1oV77e5f5fv2kVUYrURhtw6vbnXMn3fF8iwwTpkUD9R+Iz/f9ONxx9/lyfmb89D4R9WEMeES9KgFPvai9rUAbStKdwwCR+pRzERDF9mzfKkWpc5DeaEGWMvfsUAks4lBFTQCUFjoR2n1Qu7kCyJqjzp9TpT6FfGWxFTl4qQuv6I5FmgenXcCl1qK5Bp0iX0/dYjDSapteVwD1SBsWpUVrlONyWSlTDrpzuhOWiUKFPJQvV7MyYcoK59dtU85SZDQVIUWzqIrnEKBnSn0QUdrFNmpeRm6Tvo8zMEiLl/g6tK/7bNin5tjdyPR56J+0qqNuJcuKHcD8JNdwowyTVKt7dqzOKEKzZo5dd3m8fjV5+tUq3a6O6Up5vyPEiqQ8n1CdCyjweBwdUF5PrQzW5CFFsxBP198nouDAgEfUy8Kf3CWtjGkwwmiIQ8Mi7TDAcCxuKEV6aZZzTlkaUOpwLkjiWQLWWPOB5XHy/LEGLHjRrM7LC3+yFPlwDquMa8hH3YtmoHRrx+FRIQe19HnujkYKbtJiKwlYU5kOq3Is6UD+i5qzfHIXSrMqkCUfiyU2H+ni3EQfifsyGrKASh+rlHIojjPEo+SQdMwVacp+LIi1liJdDqri9ZNWJPXlfSHqD4xYVleMqcqcsikteESzyIqy6AaU9hHTEbHhQbT6UlGJWIimTYny8MDpMDwbicL5yhwrZbEWZb9p2Pd0JQqjgfKKQA93nIky7XGNKMK0/cXIQMcVLtfjlocPul3B0YhldfLKmfI55k4u9tNqj+JxCNcvqQBV851z8AxTijB1k6d732nNRJmy2qfyXPm9a1UrdDORKa/uGV0M78fRIenzVS98RtS2Lr9PRMHB4HA4HBcuXBC3E/UZX13+CiNLRwIAKtIqMGP0DLEL+ahtVTziGvJ1K0P2TbXINlgQa/XDXEPym72f7EXatjQAwOcLP8ewgcPELhQEBm27A4aTjcDUnwKRmWJzUKp+TFry3+2qk0R90ZVLwKY4AMClxJ24MvpbYg+iLmMFj/q8IQOGYFDYIADA6QunxWbyxGUop7QYivtqW2+SbiauvYF42yoLKrSrclKfoPz9hRnCGO6C2aBrpP+9+KXYEhRchnK2rkfuxo6HCRL1KRfPqD86lL9JIj9hwKOgYBouDdo5dLLDFTtIId//rUtDFXuUdO8/dSipwSjdqNzrwibUG6wnpRmIyt8jBSfHNfL7d/qw2BQUTDnFKIS8yuSI6TBM2YZH9vsyTJCoDznlnG3quOY2XRNRdzHgUVC484Y7AQC77b6MvSdFwjr9ypZ9L9zJxi/GLu0KnAx3fdI7H78DaP4eKTg5bpgu/fDpPrEpSDiX6pceDHcUhD7ZCwBwjJwIXHW92ErULQx4FBQSb0kEALz10Vs4cvqI2ExEAfbRmY+w88hOQPP3SMHpyi3fln746gTw0VtiMxH1hCN/BgBcuSVJbCHqNgY8CgrfM30PY4aOAQCsfX+t2ExEAab83d189c1YELFAbKYg4hhhxhUlpLesF5uJKNAObQXOSP9YfeX20FjoiPoWBjwKGj+L+RkAYF3TOuw4vENsJqIA+cuRv+C1A68BAH4a81OxmYLQlUlLpR+Ovw8c+IPYTESBcuYjYP9LgBzuHKMmiz2Iuo0Bj4LGE9FP4FvyMsKP//VxvPfJe2IXIvKzf33yLzz+18cBADNvnomfTmLACwVXxtyHK5GLpV/efxmwbRe7EJG/ff0F8M88aQXbq0bh8h0rxR5EfsGAR0Fl7d1rMfrq0Th78Sy+98b38KcP/yR2ISI/qfywEt+r+h7OXDiDm4bchJK7S8QuFMQuxRXDodx7q+5ZoEmq0hJRAJxoAGp/BJw4AAC4NPP3cAwdK/Yi8gve6JyCzt7je/G9v34P7WfbAQAP3v4gHo19FNNumiZ2JaIuqP+0Hv/T+D/40yHpH1CMQ43YdN8m3HXjXWJXCnYXvsCgt+bBcOxv0u83TQMiFwJjedNlIr/4sh2w/i/QUqZuunTPH3Hl9gxdNyJ/YsCjoNR2tg2P//Nx7DjqnIsXNSoKd42+C6aRJgwdOFTXn4i8O3fpHA6fOox3P3kXTSea1O33j70fv/vm73Ab79MU0gb+8ycIO/g/zg3DRgM3TQdGmoBBw7VdiagjVy4CZ48BJxqBz+rVzY5ro3A5rhhXRsfruhP5GwMeBbV1h9bht02/xfufvy82UR8z9rRzKEr7CKn6Sn1X7HWxeDz6cTxsflhsohAV1r4TYQd+gzB7rdhEfUyz5r+nUfzvaZ/nuHo0rkQtweXJT4lNRAHBgEch4R+f/ANv2t9E/Yl6tH3ZhvOXz4tdqJdNapkE4zEjPr75YzRGNYrN1MuuHnA1bh12K6ZePxX/OfY/cc/N94hdqJ8wnGxE2NE/w3D8XRjO2ICLp8Uu1Mvebr8VG62RuHnoWTx71ztiM/W2sMFwDB0Dx3WxcIy5F1dufUDsQRRQDHhE1CPWr1+PPXv24M4778SiRYvEZiIi8tHf/vY3bN68GTfddBNWrFghNhNRP8dVNImIiIiIiEIEAx4REREREVGIYMAjIiIiIiIKEQx4REREREREIYIBj4iIiIiIKEQw4BEREREREYUI3iaBiPzq+PHjOH/e9T6E1dXVaGxsxKRJk5CSkiI2Y8iQIbjxxhvFzURE/dbFixdx7NgxcTP27duHN998E6NGjcIPf/hDsRkAcOutt4qbiKifYMAjIr9yOBxYsWIFTp06JTZ5NHz4cKxcuRIDBgwQm4iI+rW1a9eiqalJ3OzVk08+ifDwcHEzEfUTHKJJRH5lMBhw3333iZu9mjVrFsMdEZEbnf3v6R133MFwR9TPMeARkd/NmjULI0eOFDe7NXz48E5/gSEi6i8iIyMRHR0tbvZo1qxZ4iYi6mcY8IjI7zpTxWP1jojIO1//e8rqHRGBAY+IAsWXKh6rd0REHYuMjERUVJS42QWrd0QEBjwiChRfqnj33Xcfq3dERD7oKLyxekdECgY8IgoYb1W84cOHd/iFhYiIJB1V8fjfUyJSMOARUcB4q+KxekdE1DmeQhyrd0SkxYBHRAHlrorH6h0RUed5quLxv6dEpMWAR0QB5a6Kx+odEVHXiGGO1TsiEjHgEVHAzZo1C4MGDQIADBw40OULChER+SYyMhKjR49Wf+d/T4lIxIBHRAFnMBgwZswYAMDo0aNZvSMi6oYJEyYAAIYMGcLqHRG5MDgcDseFCxfE7URB5eNzH6P241rUn6jHR2c/wvlL58Uu1MvsdjtOnTqFESNGYOzYsWIz9bKrB1yNW6+5FVNGTUGCMQHGoUaxC/UXl88j7OifYTi+F4YzNuDiabEH9bKTJ0/i2LFjGDRoEMaPHy82U28LGwQMHQPHdbG4Mjoejmtd500SBRIDHgW1vx/7O37X/Dv86cifxCYi6oa08DQ8Hv04vjX6W2IThSjDaSsGHChGmPV14Aq/FxD5i+Omu3E56se4Yvqe2EQUEAx4FJQccOCJuifwSssr6rYhA4fgrpvvwriR4zB04FBdfyLy7tylczh8+jDeO/aergL+6MRH8VLcSwgzcER/KBvQsAoD/pWn33jDN4AR44DBw/Xbici7KxeBs8eAE43AVyecm29JxOUZv4FjeISuO5G/MeBR0LGfs2P+X+djz2d7AABTb5qKH8b8EN+5/TswGAxidyLqBAcc2HZoG/5f4//Dvk/3AQDuuvEubLh3A24ZdovYnULAwL99H2GtG6Rfht4MRC4ETCnA4BFiVyLqrGN7AOtm4Ojb0u9DbsCle8txZXS82JPIbxjwKKicuXgGs3fMRv2JegDAL+/6JbKnZIvdiMgPXv73yyjYUwAA+Maob2Bn4k6MHKy/pyEFt4F/W4Sw1k3SL+a5wLRl0vwhIvKvtp3Au/8NXPwSGHg1Ln77L3DceJfYi8gvGPAoqGS8nYH/O/x/AIDf/+fvkRqRKnYhIj+qslXh0Z2PAgDSb0vHxvs2il0oSA3YX4AB+1dKv0xeAkz6gdiFiPzp5AfA35YC5z6FY2QkLqa9Cwy4SuxF1G2cVEFBY/2H69Vw98I9LzDcEfWAFFMKVn1rFQCg4kgFXj/0utiFgpDh8387w92E+Qx3RD3hugnA3c8BAAynWlznvRL5CQMeBY3ChkIAQGpEKrKissRmIgqQzMhMPHj7gwCA1Q2rxWYKQgMafy39MOI24I5csZmIAuXGKVLFHMCAppdg+PKI2IOo2xjwKChUH61G8xfNAMA5d0S94CdTfgIAOHjqIN746A2xmYKI4dzHCGuVh9pGLRKbiSjQJv0AGHI9ACDs0DqxlajbGPAoKFR/VA0AiBsTh8k3TBabiSjAJl0/CTONMwEAVR9Vic0URAxHpf+eYuBQwJQmNhNRTxiXBAAI4z+YUQAw4FFQqPu0DgBwz9h7xCYi6iHK35/y90jBKUy+xQxuvhPgrWWIesfoOACA4cR+4OIZsZWoWxjwKCgcOn0IABA5KlJsIqIeovz9KX+PFJwMpz+Ufrj2drGJiHrKtePVHw1nWnVNRN3FgEd93teXv8b5y+cBAKOuGiU2E1EPuW7IdQCAC1cu4Nylc2IzBYsLp6T/5T0NiXrPVdeqPxqUv0kiP2HAoz7PAYfzF44mIuo1Bs0foO7vkoIM3zsiolDGgEdERERERBQiGPCIiIiIiIhCBAMeERERERFRiGDAIyIiIiIiChEMeERERERERCGCAY+IiIiIiChEMOAR9bo2lMQaEb+qTb95ezaMBiOyt+s3t62KhzG2BEJvvUMliDfEo8SH+1F73590bOIx+KzD45D2bzRoHotqxU49onaR87W1PxNRCKrJg2HEdM1jHlb7fK/p3cgcMR2ZNeL27tqNzI6Oo3U9onXHHYjj8IX2GgTqehBRVzHgEfW6cCQvMsPaYNVtbWtphDnGjIrN+qBhbbACU80I120VjF+MXY5dWDxebOhL2lASG4cNi+pgd9jlRx3y67O8BM6ekbDODvu6BHEzEYWCmjwYHgKqTu+FQ3lsmojcKX08pLSuR/SUbXhkv+a49y9F/UPTEV1sF3v3oJkoO70XZUnidiLqLQx4RH1AeGQMULoVzijXhup1wIKKfKTrttdiaymQPk8KH22r4jXVL02lTKycydVAo8EIY2wJSlwqVA14QVNJk6qJUgCzNAIVadoKYy2yvVTcahdp9mNp0LXpHKrGhkYzFqRro2o4Flfkw9y4AdXujt1ghNGQrV6P2kVGxK+q1VQBpXPWHYN83G2r4mFcVKtr81SZFKt58atKdOese16H15aI+pLqih3A/CQkazcmFaBqPlBesVvq89h0GB6TfgaUyplQXavQVAHj1sOmNkgVLbVNux8AtuJ5biqHu5E5IgflsHkMmrbt29Ac/SDmRGg2RixE1UoTmje8pb5+9WP6Cp/z9eUKYY2mChi3Hjbd8TrP0VY8D4bHduv25+64XKt587C6WFshzUO1prd2f9HF61n9IwoABjyiviB1DtLRCKsa0KqxAQuQPN6M2JgKbFUCxSErGpGOOalSYIlbtwB1SvWrMgYWszP8qA6VID6tAumVcr/nGmApFfo0VgDPKftJh3V5FkoOhWNxQx3yY4D0Sjt2PRkuh7ssQNmXXHFTQlTtIiOy6vPlY6rDgvoK6OuSGuPNiIEVFotwxNrq4/ZsGNMakW9VXq8U6ahAliZAWZdbgAqpvTTLCovZCEusXBWsTId1+QvOa1Ka5Wyz5qMxzXPI07Iu34BY+RjqXjSjIk2+zr5cWyLqU6ImmYCNRS5DIZNf2QvHKzP1G70o3+isAlZNLkJE3HrYYMfquBzUr6yUq2yVKHw/R62w2YrnIWLDg2jVVQ7zUI2ZKDtdjAyYULjffTXMNGEi0FSEPCEMmXI2w1G3ECY5PKW8v1Sz/0RgY44mQNmQ+6xy3MXIaCpCxIgiTJOrglXzbch9XhNIN+Ygd5J8LnK1sOMwZkPuhkj5GCpRGL0DKXLItBXPQ8rGRPW6FR4oQrn4dCLqNgY8oj4hAXOyrNhQIVfJmhtgnWpGuDx8Ux2m2dwAa0wszKjFC8uB/IrFzqGaqWtQmlUBizCXr61iA6xZpViTqvR7Cvkxui5ATD6eUtvnIB1WNDQLfQC0rbKgQrsvueKG5S+gVqkuPqcck1yN0+5AJwFrrPkwl2ZpqnPCfL3UNbDrhpomYE6Wph0AsvLV9oR56QDSkf+kfFXE4ByTj1Klbfxi5GfBZQisW5rXCE9fALO8T5+uLRH1KaaczVKQmeKuyuW7jE0FahUw+edLEdW0DVtd5s8ZsaxuL5pyjAB2I28FUFguhTFAqRzuQK4vQyyTCtC60oTyhzTHrascyiFVDnvSc5KQoWkHgIynlfaZyJwPYP5SLJOrgsnpicD7Nuc+o5eiKsco/RyxEIWaKqc3ztcwYs4Ck7xPO7ZusLleN90zicgfGPCI+ghzrHMeXu3mCnUYZnj6ApjrrWiTt5sXJSP8kBWNkKpV2uGLWW6qR9YGK8yx2pgVDvNUza+dYG2wArpAZoTRbJGqdIesaIQZsdr/tx5vhte8M34xdqkVyHRAOSdxDt6hEsR7OUedmFjPoVKYu2iONQPyte0Kf15bIuo5ya8o89gqURgtVao8D0F0x4RpEzW/RpgwFTbsO2jEsqcT0bwizTWAtdpQLw/BdA5fnI6UjZr9dMCUs1mdf1c1H0BTESJGuM7Bcw4DzemwQhY1SY2DriabnGFR6asNgJ1iw74md9eNiPyNAY+oj3AGuVpsLZWGYQIAxidjATag+lAbrPVATKQSUcyaoYvOhzSUMoCySl1e0+5Yg24vSZK6xjkMs9GCF7Zrgp3Zghh5GGSpWMEjIuoyqcLmOL1Xqo49q6+IdUlSgTqkMUoOYM4KoTQEU10kRX5IFb7OUUPqpkQ0r3gZ1ZpgF7FionMYpvhEIgp5DHhEfYUS5FZtRYWuChUO81QrGiqqsaFRDn7y/DV3wyhF2sqgRAqKXeG14uXumA5Z0aj5Vcvz7RnMiI0BGlva1CGQdoddMyy0G4Rj92lFUi/8eW2JqCd4XtJfmuPWAh/+sypVow5qfm21od6lqrcQTeo8uBpUq1U+TR+f2bE6zrVSBwCYGIkoHERzqzIEci8cp53DILtFqNY1H7C5VPV8Z8K0aHfXjYj8jQGPqM+QgtyGdY3SMExNS8K8dFQst8CaNUeulCXgKe1iH4C6uqW4aEh4+gKYS7Oc27e/AIun1NWB8Cfzkd5oQZZmnp8zqMnH9AsltLWhJF0evumGsq84ccXJ7S/A0qiZR6cJZW2r4jseoumNUhmEVB20lJqRn9/12qM/ry0R9YSZKFhpQvlD4v3m7Fj97A5ErVyCZHUhlhp19cfq54tcgp+z2mfH6owiNM9fimURrkHMuWqn8traVSU9B04959BPsW/188prS7/Xf6C8trTgS0dDNL3SLurSuh65G00o/LnvC9HoSfPxtOfv7roSUfcx4BH1IQnz0mFthHDrAGWxELmCJgt/chdKsyqQpc6Hk1a3dKl0jV+MXZXpqEiT+/0iFvlZ+n15Ji/ykqYs/S8tjILlceocvLh1C1DXIC2sEv7kLpROtSDOYITREIeGRR0ssqLc9047p+8XsaiTh3yGP1mKfCj7MyKuIR91L5qFW0p0Qkw68Avn3MGYym7eK7Bb15aIeoMpZ7N63zvnXLg07HvaOVTSlFMsrf4ot5eli0MdTShc0CINvxyRhlwsResrM6UgVr4UUObgjZBXtZRX55QWeHHu1zAiB9ikrJo5E5ny4i9uK3VJBepKlto5fLmTKuXVP8XXTsO+p6U5hr4sjOJWdCLwrPxaU4owddNmNUh2hXj+uZOWIkOsfBJRtxkcDofjwoUL4naiPuOry19hZOlIAEBFWgVmjJ4hdqFOql0k3Uog4PP1+hD1thJyGA2UUL62ez/Zi7RtaQCAzxd+jmEDh4ldKAgM2nYHDCcbgak/BSIzxWYiQHtLB+2qnH63G5kjijBtf/eCY1C6cgnYFAcAuJS4E1dGf0vsQdRlrOARhTiXuW7y0ESXKiF1Gq8tEZGvXIev2oqLUC7evJ2Iuo0BjyjEicMcjeYNWGDt5tBEAnhtiYg6QRxCOr0HKoRE/ROHaFKfxyGaRH0Dh2iGBg7RJOoDOESTAogVPCIiIiIiohDBgEdERERERBQiGPCIiIiIiIhCBAMekSeHShDv5sbhqo7ag577G6frSX2097HT9ndZZTLQtmfDaNDe/L0TDpUg3hCPkkNigw+681wi8q51PaI1930z+HRjcKfqx6bD8FgX7wPnkbQipPM4pBuWa49Rffj9tZ0Cc26ymjzhXMSbw/eQ1vWI7q3XJgpSDHhEXpnR+At3X9xrkW22wCpuDikJWONwc+N0xfZs9ebqdof8sOajMc2I+FU9FumIKJS1rkf0lG14ZP9eOE7LD/lm325vBt6rTCjUHufpvXCcLkbGxpw+eKwdqMmD4SGgSnsu8s3hOxOuiah3MOARdWDBohhsqBACy/atqMhKR7puYxtKYjXVLE3lqm1VPIyLSnTt+hAkPFfbfqgE8YZslKyKd7tv8bnZq4Rq0vZs3X61FS7vx+WtgleL7LQKpFcKAXD8YuyqTId1+Qtuq2i1i/TnaFyk6SVXRF2PQz5Otc1d4HavdpER8atqNecnPVd7HGIYbbBoXkt7fN7eI5GXay4dU4mu8qm/xkJVVHcM3tqIQo9t+zY0i/dJi1iIqpUmNG94Czb5htyGuPWwqR2kapo+iNRoKmz6alD1Y9oqVR6qdU/TV7GkfdqxOi4NuU1AeYdBcyYKNMcKuO5T+5rVj01HdPF6XTVQdx66amYeyjRNUK6Fm/1K12QeVtdonh+3HjZd5dF5XaordgDzk5Ds3DWQVICq+UB5hVIxlKqY2nNxXotOvt5j0xFdvFuzP28VO6FaqqlgVj82HZnFymt62wdRaGPAI+pI+hzErKvWDTOs3VyB9HlzNFvaUBIbhw2L6tRqVulUC+K0X8BLLWh4Tq50VabDujxLDirScy1TS9Xn1r1o1rQDQAUsDflyeynSGy3IksNF7aI4WJCPOocddkcdYtdpKovbs2FMa0S+VamylSIdFcjy6bi82L4VFUjHHHfVvdQ1sDvWIEHYXLvIiKx65Til10JplhxupIpojFoNLEXM8jipbXs24pbHoFR9XgwsZt+HYVqXW4AK+T3JssJiNsISK79PLmHUior6Beq1zK/PkkOUL++RzIdrbl2+AbFye92LZlSkKefThpLYLDS+qHyOpGOQgmQtsnUVU20bUWgyTZgINBUhT6gamXI2w9GZ+6dt3AFs0laipC//tuJ5SHl/KVrlKlXryoNIUcKiWMXavxT1D83D6lYjltVVojAayNi0F005RvHVPKvJg+Ghg5pKXzEysAMpmpDSvGIbpsntrStNKH9IDmqt6xE9pQhT1fMAyjc6d20rnoeIFRPV421deRApupBnQ+6zyvkUI6OpCBEjitTXqppvQ+7z0nFETTIBG4tcAlLyK3vheGWmM+ROLlYrfK0rTWhekaN5ju+vBwDNK3Kw72nX90hvNzJH5Djfy9OVKHxfXyEtX9GCwtN74Ti9Gct4A3XqpxjwiDqUgDlTN6Ba/SJfi62lQrjZ/gIsyEfpk+HqpoR1pUgvtTgDQEw+nlKekzoH6bCioRkAwrG4wQ77OmckCk9fALP6GwCYkZ+vtCdgThZgbbDKx2JGfsViSK8cjsXPaeqKqWtgd2hvvC09V8fjcXnW1tIIxMQKx+hdwjo77A3KcSqv5YmX4aEeAqRHWfnq+SfMSweQjnzlfUqdg3Q0wqq+t26uZelW1Pr0Hsl8ueaaY5L2Ix/D9hdgadQcn/y6u54MR9sqCyqySjXXJByLK/IBD9VSopCQVCCHHE3FRlet89H8YpQlyT8nLUFhtA2vbnetvDmDox2rn92BjE0FzipWxEJUrYQulHRsN/JW2BC1YJYURpMKhOAxE5nzdU8A5i9V202pDyIKB9HcqlQzl6JAPQ+poiaRXkd7vKacYhRG70CuJvxkPK2EYvl1Na+VnJ4IvG+DTb4OVfNtyJ3ivlIGGLGsTgl7EulY9Xx9PcC398hWXIRybT/15ukvO4OsWHkk6ocY8Ih8kDBPM0xz+1ZUZM3RBYy2lkag0YI43bC8LFRo+vhCHTro6/y+Q1Y0IgZmNUwAiHITvDTDH7NKxcae5Rxuqb0+CXjqRTMq0twMPUx9CvkxFchyO5yxC7wGU3fXUhsAO/EedeGaewvO1gYrUJql+Xz5cAxEIcCUs1mtElXNB9BUhAjdcMCORU3S1vqMiJoMNB+wwZSzVK4siUP6bNgnD8HUDkGMWOEtWgqBaMR0GEbkoH5lpWuVTzPUMkVThfOm+YANmGzSVS3V82q1oR4mTJuoaZTP0xv9ddFLfkVTJYsGsDEHBnHIqHaI65QidPBvg15fz9N7pNV8wKYeh/rw4XWJ+hsGPCJfpM5BjFwpkYZnuqkfxWiGH6oPbSXHMyU0qEMYrfluv+R3mhIyNMMfS8VqUheER8YAjQ2dChdKsHMOtyzVVfDCn9ylG7ppVOe4ydUz+dilEOj7PDx/8fk9CtA1BwBkOYeIOh+dqGYSBTk1dGxKRLO2atNlM1GmhhgloDmHNWaoQwE1D03VSk+/yIpUXUtEoTbcKcFOM9TSWYXrq+RqnTJk9FmpgqoEO3WI6/6lLhW8gJjvHBbqfGgqrUTEgEfkmwTMyarA1u1uhmd2MfA4ycMsrcIQRl+MNyNGqDCh2XkcbRUbYJVDgdvhjl2VOgfpqMBWd9U0t7cMaEP1OivSK30IJKlr1LlpVmHuY8I6ee5ZjNV14Ru/cHctY2Ae7/t71J1r7u1zZI41A/XWnrvlBFGvkxbxcFupmxipDl30hb4SZEfz+64VIynESHPiympMmBYN1H/g5rV9lPxKJQqjdzjn9CmLxsgBxTnM0DdRk0z6IY3a84owYSps2HdQ0yifZ+e5W6RGIs2JbEEzdqNsoxxoOzMX0ouO3yP314CIXDHgEfkoYV46KtKyXIZnApphhNqhhZ26J5t23ltnbsGQgDlZVljSlVU121DyC2FgqCYUtK2K93m4oHcJWFOZjoo0YcjkoRLEmy2wauaYaTW2qEeCkljtEE1xxU4pEJoXJSNcvI6HqrGh0YwF6d5iVldZYbGo610iO60C5hefkt/vTrxHXb3m8ufIolk4pXaRNGQ1/Ml83eI6UKqiPXmfQaIeZcSypxPRvCLNJWxUP1+EZnk+lxQ6tmGrHPZsxUUo13fXLRhiK85BbpNUWXNZgbOmBuVIRGaS8traRUO8BE63pPlhUU1FiNDOX9MEFFvxPJ+HaCrDSdUFZ2ryNM+VVutUF2QRzrNzlH2Ji5xI8xKjVi6Rq2XaQLkbmd0dKqld1KXmZbfHrlyDFM174PIeEhEDHpHP5EVB3A7PRDgWN5QiXTtHKg0o7ahaBejCkvRcC2KtpUiHb1WqhHV1yIcy/y8ODYvyYZbnkoU/WappMyKuIR91L5rlhUO6KXWNet877ZywmEr9YiQSZUGQOLlvHBqeq0N+DFCxudbNNZBWrNz1ZDiQugalWc45eNJr+Db0tfPSkR9rkY8hCxVZ8jG4HJ/n96h711z6HMWo10keErouQToGq/YaGhG3bgHqOqgoEgW1pAL1vnfaeVe5kyqdQyWTCnQLgqRgqTRnTCNq5YPYJ7dHrAAK90tD+kw5xSiEMgdvurzCpTzcL6kArSuhmVeXhlcXKPPpjJizQF78xduNxiMWomlTIiDfC098vYgDS9G60gRsrPFhuOlMlGmvxbORKNQM7zTlbJZXzlTOcyKqujh00ZSzWb3vnfO6p2Hf08qqoTNRtilRM0exCNP2FyMDrguj+Gz+RPU90r0POtI1wIo09bgiNjyIVj9VEYlChcHhcDguXLggbifqMy47LmPo60MBAJtSNuGesfeIXUjrUAnizQ3I9ylcEvnuHfs7mPvGXADAmUVnMDhssNiFgsCg7XEwnKgHvvETIPr7YjNRj6t+bDpSUOxlfmMIunQe2Cx9n7mY/DYcN31T7EHUZazgUZ83wDAAN199MwDg6JdHxeZ+ThzaCNRaLLC6G0ZK1E3K398NQ25guAtijqFjpB/OHRObiKinnNVUOq8erW0h6jYGPAoKk0dJaz3v+2Sf2NTPiUMHjchCqZshkkTdt+9T6e9P+Xuk4OS4Llb64Xij2EREPeV4g/S/g6+FYzgHmJJ/MeBRULhvzH0AgD8f+bPYRPKqk+qD4Y4C5M+Hpb+/+0ZLf48UnByj75V+ONkCnPpQbCbqccmveLv9RIg6+jYA4MqYWWILUbcx4FFQ+O647wIAjp8/jnVN68RmIgqw9c3r8cm5TwDN3yMFpyvGWXAMj5B++eB/xWYiCrQTjYD9HwCAKyZpXjORPzHgUVAYd804LBq/CABQ+K9CHD9/XOxCRAHy+Vefo/BfhQCAzNszcfuI28UuFGSuRC2Rfjj0f8Ane8VmIgqk99cCAByjJuMK/8GMAoABj4LGL6f8EkMGDMHx88fxs10/E5uJKECW7VqGT899ikFhg/DLKb8UmykIXY5+HI7rp0m/vFsAyNVZIgqw/b8Fju0BAFyeskJsJfILBjwKGuOuGYeX4l4CALzZ9iYe2fkIzl06J3YjIj/56vJXeHTno+rc19/G/Ra3D2f1LlRciiuWfvjyKLBrKXBKd1drIvK3/b8Fml8HAFyelIMr4WliDyK/GPDMM888c/nyZXE7UZ805fopGBw2GH/9+K849MUhvNH6BkYPGw3zdWaxKxF1Q83hGvzozR9hj/wvzc9MfQaPT3pc7EbBbNhYOK6dhLDD/wd89TnQug0YdA1wfYzYk4i640QjsOdZ4HAVAODK7Zm4/M3fib2I/IY3OqegVNJSgpy6HPX3qTdNxQMRDyBudBwiRkZg2KBhuv5E5N3ZS2dhO2VD3cd1eKP1DfWWCADwmxm/wRJlzhaFnLD2P2PAPx6D4bx8X7xrxgK3JQI33wmMjAAGjxCfQkTeXLko3efueIO0Wqa8oArkyt3lO1/UdSfyNwY8Clr1J+rxTP0z2HF0h9hERH5w/9j78czUZ3DHDXeITRRiDF99hgH/WoEw6x/FJiLyA8eoybg8ZQWHZVKPYMCjoPe3Y3/DxtaN+Ev7X/DR2Y/EZuoj7rDfgQlHJ+DjDz/G2xffBm6A83EjgOHiM6g33DLsFtw/9n7Mj5iP+NHxYjOFOMMXTQj7sAxhH1XB8EWz2Ey94NR5oPU4YDsOtH4m/bzNakTi7HjcPBx4LnaD+BTqKwZfiytjZuGKaS5Xy6QexYBHIeXjcx/j6NmjOH/5vNhEvey97e/h8PuH8cEHH+Dtt6UbvGoNvWYoxoSPwejw0Rhz6xiMCZceo28djTHhYzBw0EDxKeRHQwYMwS3DboFxqFFsov7q65MwfHkYhotnxBbysyNHP4Gt7WO0tn0M20fHYGv7WHp89DE+O3FK7I4JEybg3nvvxfUjh8Hyk2SxmXqZI2wQcPVoOIabxCaiHsGAR0Q9Yv369dizZ4/HgNeR8PBwmEwm9TFu3Dj155tuuknsTkTUZ5w6dQqHDx+GzWZz+7h06ZL4FK/UgHf99XjmmWfEZiLq5xjwiKhHdDfgeTN8+HBd+BMfgwYNEp9CRORXR44ccQluSqj77LPPxO7dwoBHRN4w4BFRjwhkwOsIq39E1F2nTp3ShTbx0dkqXHcw4BGRNwx4RNQjejPgecPqHxEperIK1x0MeETkDQMeEfWIvhrwOqKt/mkrf6z+EQWfvlSF6w4GPCLyhgGPiHpEsAY8b1j9I+p73FXhlFDXl6pw3cGAR0TeMOARUY8IxYDXEVb/iPwvVKpw3cGAR0TeMOARUY/ojwHPG1b/iDzrD1W47mDAIyJvGPCIqEcw4HUOq38UyliF6x4GPCLyhgGPiHoEA57/sPpHwYBVuMBhwCMibxjwiKhHMOD1HFb/qCewCtd7GPCIyBsGPCLqEQx4fQOrf9QZrML1TQx4ROQNAx4R9QgGvODA6l//wipccGLAIyJvGPCIqEcw4AU/Vv+Ck6cqnM1mw/Hjx8XuFAQY8IjIGwY8IuoRDHihry9W/9asWYP77rsP0dHRYpPftLe346233sI999yDcePGic0Bxypc/8OAR0TeMOARUY9gwOvfeqv69/jjjwMAIiMj/R70lGD37rvvAgCWLVsWsIDHKhxpMeARkTcMeETUIxjwyJtAVf+UgKfwR9ATg52iOwGPVTjqDAY8IvKGAY+IegQDHnVVd6p/YsBTdCXoeQp2io4CHqtw5C8MeETkDQMeEfUIBjwKFG/Vv5UrV4rddXwJeh0FO8WPfvQjXLp0iVU4CjgGPCLyhgGPiHqEEvDsdjs++OADsblf+XrYrbg05AZcGXCV2ER+Fh09Sdzk1nXXXYuxY8fiuuuuw4CwAbh85TLOnj2L9qPt+OTTT8XubtlsNpw/f07cTH5kuHIJA78+iavOHoHhSv8NzEajERMmTGDAIyK3GPCIqEcoAa+/akM4rDCjDeG4CM9DConIN7fgKMbjECag//6DEQMeEbnDgEdEPaK6urrDIW6hyH5pFN4+NwlHLuoXChk4wIBhgwfothGRd19fuoKvLl7Rbbt+wBncM7QJUYOP6rb3B6NGjcITTzwhbiaifo4Bj4goQNb+7QSWbrarv08fNxzfjhmF6abhuHUUh2cSdcVnZy7i321forb5JHYeOKluf+K+G7BqzhhdXyKi/ogBj4goAAp3foZfVh4DAJhuHIKc/7wF/zFhpNiNiLrhg2PnsOYtO3ZbTwEAFs24Dv+z8BaxGxFRv8KAR0TkZxv3foGHX/8IAHBv5LX47++acNXAMLEbEfnJS2+2Y91u6R9Ult9/I1amjha7EBH1G/zGQUTkR5+euaQOy4y7fQQKH7qd4Y4owJ74z7HIjLsZAPDiXz7Dmy1fil2IiPoNfusgIvKj5//8KU6eu4yhg8OQl3qb2ExEAfLTb9+Cb9x6DQDgv2t8u7UFEVEoYsAjIvKTL85fxtq/nQAA/DDeiNEjB4tdiCiAfnSvtMjKO61nUXuQVTwi6p8Y8IiI/KRi/ylccUi3QJg3/UaxmYgC7K6IEZgsV/G21ksLrxAR9TcMeEREfrLLehYAcI95JK4ezP+8EvWGb8mr1b79gfT3SETU3/AbCBGRnxywfwUAiB47TGwioh4ySf77O/TZ1zh3QX9TdCKi/oABj4jITz45fQkAcPMIzr0j6i3aua+fnpH+JomI+hMGPCIiP7l4xQFAmoNHRL1jYJjz7+8SC3hE1A8x4BEREREREYUIBjwiIiIiIqIQwYBHREREREQUIhjwiIiIiIiIQgQDHhEReVGNvLEGTPfwyNsp9nfanaPpm7Aadl2rDesTXPenf0Rj/WE3fXOqdXtyx7422sPreuLuPDOxW+ym4f384GGfzod47dRj9vhQrof3/Xo+bvF5yv6IiCiUMOAREVGX7fi+AfPW2sTNAKpRs0Xza8ureKurYeLwVmxr0fy+pcxDgOminZmYPjYFO8TtKEfO2MCdn+dr113lyHEJedXIcznHZhTNZMgjIgo1DHhEROSTxNcc2NvufBTPlbbbClJcQ8LOMilMRGYgMRIAmrGtRhtmTFhY69xXZV6UtDmyEJXqazRh4TjAXvMqbAAwNwOJAIBy1HipHHbK4dWY9/1y6ee5VX48P71OXTvdNdA+pOuhJe53b3uV22tkX5srh7sMFLc7sLe9FUvl4y76TccVUSIiCh4MeERE1CUzi50hQQw3u9+QQpNpbgGWzJXCm23LVjfDGDtiw1tbmgEAiQ+UIUkORjve8E8o2f2bXCk8RhaisjhZ1zazWAliriGou+fn7dp1TxQiI6WfDh5ys9/IaTABUsD+eYa0rbHZ5+MmIqK+jwGPiIi6yIRZbsONMnwxCg8mmWBMekQKFV0YxugcnpmBpNnAzAfkUOKXYZo22Bqln0xz58AoNsPT6/nj/Dxdu27SDGedOF6KcgBgHD9V+qElF2nK/L/ZZVLVr3aZ23MnIqLgxIBHRERdpgYHLWX4IqbCNA7AuDl4sIvVKnV4plJ5mp3pdghi1zSjxU0Y0jErFS8NP52f22sHZwhzWTzFzeIyO74v9JnprEguma3pOLtMHRaqe56bfRIRUXBjwCMiIr9Shi9ibiZmArrhgJ2rVjmHZzorbMlYIs/X89cwzc7y3/kFRuJr7qtyM4sd2Lu7UB9Yt6R4WAGUiIiCFQMeERF1mf1QvbBFs7rklhRnZUlZyKQzwxg1ww1tBRHqvtIKpNDX/WGaHcxXAwDrPqkipvLf+bleO5mnRVaEOYLQLLKiLlLj7VwAYNwybBYWekFLLl7udjWUiIj6CgY8IiLqMluLUGFThy964vswRnV4pkfdHaZpgilG+slT5c2lWufH83O5dt1g/HGTZmXOCOEee877CGpvy+Bc6IWIiEIJAx4REXWJfW00cjSLjUAXiPS3HNBWmWwFeT5U3jTDM/NaXfalhJkdz3dveOHMn8pDFltykSYMVdydY5DPD0h8QKqe+ev83F277ppZrNwiQbwumiCrPbadeSjS3l+QiIhCAgMeERH5RFzQQxkqacqrku/P5hy+qAQiLXW1SV8qb+rwTPcBSF3dsqMhkZ4WLFHC3Lhl2Pyasi99XyXcmfJaUTAb3Tq/jq+dhqdjVla/9CgZBZpzydFW65QgK9+8ffpYzbBScUEWIiIKagx4RETURVFYutuBzT+WA5g6fDEKkWZ9T0C72mTHC6Q4h2fKK1WK1NU0fR8S6dHsMs0NwrWkm4IH4vxcrp2/aFbL1N1EfdwybHZ3jnOr3C7IQkREwcvgcDgcFy5cELcTEVEnjfl5Ez4/exnPzY3A/ZOuE5uJqAd8/MUFpBY3AAAO5E/E+BsHi12IiEIaK3hEREREREQhggGPiIiIiIgoRDDgERERERERhQgGPCIiIiIiohBw4vNT0iIrFy9eFNuIiKiTxjx1ACe4yApRr9IustL09ESMv/EqsQsRUUiytn6Ed/91QAp4YiMREXXeDT/7N06cvcSAR9SLtAHvg5UxMN/EgEdEoe/4iS9QvXM3ku+fySGaRESktzvH9Qbbzke0895qPqtGXoc36e6YfW00po/NxG6xAQBgw/oEA+Zpbu7t4vBqzFOOX/uzG7tzDJie09G97KC+rnpuHezXL3ZmunlfnA+v18AL+9poH8+ZiIj6mgMtrbhjShRuGHUtAx4REenNLHZgb7v8eC0DiCxEpfJ7exMWurvxuFfJKGh3oGC2uL1zjD8uRCLKUeMuKO7MQ1FLBpb6euPwccuwuUvn0oFA7Vdrdpnz/WmvQqJ803Rlm99vnk5ERH1e+8efwnSbEeAiK0RE1HnVyBubifVro6WqUcJq2N1V/tRqkLaCV428sdFYv1ZbhfJUlRMlI2kusON56fW0dr9RDszNxEy5otZhRUustB1ejXma46nRdfa0TxvWJ0SgqAXY8X15m7hf+dzdHcvuHAPmrV2ta+9ulVMiHK/8/kj0x6O8R/a10UgraAa2pAj9iYgoGHz11QUMvXoIwIBHRERdU46ilkKpalS7DLYcA3IaNZW+1zKALSkeAkszirZMk/u2YmlkOXJ8HBo486eFMLW8ird0QyCrUbMFSHwgSgpcMVVqNasyLwq2ghTvQyYPr8a8mbmY+Jpy7MCOLUqjHOLc7tOEhbWtWBoJJL7mrnJWjbyxKTiY16pW2yYWROhCnq3gVUTK1bfKvCjs+L6vYdcT6Xi3zVVe04HimFyk5VTLbdrjacXSxhTMW2uD8cdNqMyLAuZWYW/tMkj/BkxERMGIAY+IiLok8YFk9eeZxVLQU4PB7Ewkqq2uEn+u9DVh1twooLHZt6rRuDl4MLIZ22qcIcm+Nhc7IguxZLYJC2sd2FvsPC5j0iMQY5fIXvMqbJGFWKIMIZ1dhuK5SmvX9gnNcRWrwS8ZBa9lwFaQ5wxxcwvV4ZzSfuth8xZGO7IzD0XQviYws7gKiVty3YRc6dxcgykREQUzBjwiIvIbaSEUA6aPTcEOsdEvTFj4c21IsuGtLc0wzZ2jqzqpw0Vn5sLNAE0dW0szEBOle74pMkrzm6Qz+4SH/cI8zadw2FX2Q/VASy7StMMw1fdCuXYRboZuEhFRqGDAIyKiblOCXVrBVBSri38EyOxM52Irh7dim2ZxFSWEqcNFdxd2O1AFYp8BpVsUR3nIC78oC7TsLoRJCYI+Do8lIqLgwIBHRETdJFXREl9zYG97GWaKzX6XjCV5UdjxRjV2/yYXtrmZ8mtWo2aLvKJkJ+aRmSJdh4jaWprln7q2T3jYL6z7fKr+dZVx/FSgxYfXGLcMm9W5kmXdnPdHRER9CQMeERH5xcFDSqyQFvMIzBBNiTHpEZi2pCBnSxSW/tQ5Pw5oRotV+bkaeT4MpzT+uBCJLbl4WVkQZmcmctRFVtClfUKz3xx1UZVq5H2/HKa8gsCF4NkFrovW7MyUVyp1vVegc/VRIiIKFQx4RETUTSYsfLUQUOZ2jY1Ay8+l1SV3vNHJ4X9qGOnAuGVYOhdA5COYpd5zTlrEZMf3lblnuYjcXYVE6BdlcZWMgt2FOKg87/lp0r6VNq/7lBaJ2fF9d0Mdk1Egr5ypzIU7mNfq46ImXb05vAkLa6uQuCXFOQfv+0BxexlmurxP8rBTeQEZJTT7dP2JiKjPMjgcDoe4kYiIOu/GZf/G8S8v4b+/a8K3Y0aJzeSj3TmZQHFPDPXs43ZmIg9l3b5BfH9j/+JrpBU3AgCsBTEYf+NVYhciopDzh/WV+MHCNIAVPCIi/xk1bCAA4OTZS2IT+erwahSBQwYBG9Y/DyQx3HXa55q/v+uGDtC1ERH1Bwx4RER+MvFmqVJg/eS82ES+GrcMmzX3nOu/TFhYyypmV1iPSX9/Nw0fiOvlf3QhIupPGPCIiPzk7tuvAQDsaT0tNhFRD/nnh9Lf38zx0t8jEVF/w4BHROQnqZNHAgCOnbqA2qaTYjMRBVj7ya/xVrP0t/fgN64Vm4mI+gUGPCIiP5lkvBoPyCHvtX8cE5uJKMD+8Hfp78547SA8/M3rxWYion6BAY+IyI+e+vZoAEDzx+fw0s6jYjMRBUjVv09gW/1xAMB/JUp/h0RE/REDHhGRH/3H+Gvwc/nL5bp3PmElj6gH/LX5Czz9p8MAgJTYkfjJfTeJXYiI+g0GPCIiP/tV+ljMu+M6AMDvatvx3BttOH/hitiNiPzgtX8cw5P/+yEAIMZ4Nf74sHrneyKifokBj4goAP73sQhkzpBudr71X5/hwZca8Md/HMPHpy6IXYmok85+fRl/2nccmb9vxu9q2wEAM0zD8Mbj43HjcN4agYj6N4PD4XCIG4mIyD9W/eUT/HzrUVzR/JfWdOMQ3Hb9EAwdzJswE3XGhUtXYP/iazTZz+m2Z997I367IBwG3VYiov7jD+sr8YOFaQADHhFR4B35/AKK3vwEr//zBE6euyw2E1EXZdw1Cj+57yZ8M2KY2ERE1K8w4BER9ZLaljP415GzOHziAs5+zXl5RJ1x1SADxl47GN+45WokRA7H8CGsghMRgQGPiIiIiIgodGgDHhdZISIiIiIiChEMeERERERERCGCAY+IiIiIiChEMOARERERERGFCAY8IiIiIiKiEMGAR0REREREFCIY8IiIiIiIiEIEAx4REREREVGIYMAjIiIiIiIKEQx4REREREREIYIBj4iIiIiIKET8f+RS8Gq+V+vaAAAAAElFTkSuQmCC;" vertex="1" parent="1">
          <mxGeometry x="970" y="-10" width="558" height="461.23" as="geometry" />
        </mxCell>
      </root>
    </mxGraphModel>
  </diagram>
</mxfile>
